<svg width="1872" height="1404" viewBox="-936 0 1872 1404" xmlns="http://www.w3.org/2000/svg" xmlns:xlink="http://www.w3.org/1999/xlink" version="1.2" baseProfile="tiny"><title>Vindel</title>\n<g><path fill="none" stroke="#acff85" stroke-width="30" stroke-linecap="butt" stroke-linejoin="bevel" opacity="0.500008" d="M175.307 794.056 L173.579 792.703 L172.855 792.536 L172.864 792.256 L171.404 791.695 L170.969 791.282 L171.479 791.126 L166.886 788.479 L159.918 786.198 L149.702 783.875 L139.022 780.617 L122.11 773.654 L107.06 766.385 L88.6304 758.445 L73.7083 750.825 L58.8889 744.722 L44.9534 740.184 L31.239 735.968 L2.8288 728.54 L-39.3616 719.131 L-61.0531 715.321 L-84.9426 712.513 L-97.8873 711.589 L-112.651 711.301 L-131.407 711.748 L-153.292 712.808 L-183.339 715.135 L-218.211 719.233 L-229.03 720.778 L-255.412 725.079 L-280.929 730.002 L-299.373 734.187 L-310.049 736.944 L-323.704 740.975 L-354.854 751.333 L-372.66 757.929 L-389.021 765.29 L-399.554 769.377 L-412.589 775.045 L-419.778 777.728 L-455.427 795.819 L-467.928 801.756 L-490.035 813.455 L-494.701 816.657 L-504.984 822.475 L-509.355 825.418 L-522.138 831.825 L-538.87 840.876 L-549.074 847.242 L-554.058 849.583 L-555.574 850.935 L-559.416 853.222 L-565.932 856.435 L-574.963 862.014 L-579.339 863.938 L-580.922 865.116 L-592.406 871.541 L-599.988 876.642 L-604.28 878.914 L-614.987 885.965 L-623.168 890.703 L-636.641 899.793 L-639.545 902.685 L-644.215 905.673 L-650.365 910.319 L-663.825 921.778 L-666.223 925.268 L-668.198 926.878 L-675.2 934.288 L-676.047 936.159 L-682.073 944.323 L-686.268 952.302 L-687.741 953.704 L-688.48 955.319 L-688.684 956.897 L-690.841 961.244 L-694.406 967.089 L-696.552 973.026 L-699.267 984.949 L-699.74 992.936 L-700.358 995.937 L-699.9 1000.2 L-699.449 1001.68 L-699.148 1006.14 L-698.249 1010.78 L-697.145 1013.82 L-697.098 1015.19 L-695.805 1019.2 L-693.821 1022.09 L-693.801 1023.36 L-692.085 1027.01 L-689.155 1029.74 L-688.134 1032.33 L-686.029 1035.93 L-683.8 1038.52 L-683.283 1039.86 L-680.548 1044.09 L-677.902 1047.21 L-675.952 1050.27 L-672.506 1054.64 L-669.584 1057.3 L-665.795 1061.41 L-660.718 1065.32 L-658.029 1068.34 L-653.505 1072.34 L-649.108 1074.92 L-646.213 1077.63 L-639.342 1082.5 L-629.571 1087.85 L-614.604 1094.06 L-599.291 1099.04 L-582.819 1103.27 L-567.063 1105.62 L-546.683 1106.82 L-521.309 1106.98 L-490.972 1107.75 L-474.507 1108.65 L-458.797 1109.91 L-424.991 1112.97 L-382.075 1117.91 L-341.623 1124.29 L-312.115 1128.44 L-281.613 1131.81 L-266.585 1133 L-244.634 1134.22 L-226.584 1134.8 L-205.422 1134.74 L-181.249 1133.57 L-170.824 1132.68 L-146.884 1129.77 L-123.301 1125.73 L-109.166 1122.57 L-94.9374 1118.86 L-87.3644 1116.74 L-61.6301 1108.52 L-34.3592 1099.14 L-11.0704 1088.78 L-5.35828 1085.77 L17.6213 1075.22 L29.8905 1068.84 L38.6812 1063.82 L61.7873 1049.62 L72.8452 1042.42 L80.907 1036.51 L85.4089 1032.6 L90.5073 1028.99 L99.2279 1021.76 L111.354 1010.62 L117.283 1004.74 L133.925 984.279 L136.286 979.613 L140.378 973.286 L144.268 965.371 L145.659 963.423 L148.908 957.245 L151.351 951.303 L153.48 947.349 L156.185 939.456 L159.649 932.036 L160.371 930.052 L160.176 928.196 L160.496 926.215 L162.754 918.602 L162.113 916.767 L162.063 914.894 L162.752 913.106 L163.634 907.905 L163.194 904.089 L163.799 898.558 L163.158 891.28 L165.042 883.89 L165.237 881.912 L164.961 880.038 L165.884 874.379 L165.726 872.522 L166.339 866.084 L167.32 859.907 L168.038 857.993 L168.334 855.947 L168.178 853.943 L168.553 847.938 L168.263 843.916 L168.704 839.742 L168.185 833.657 L168.686 829.628 L165.232 818.684 L164.556 815.081 L161.77 809.88 L161.15 808.233 L160.989 806.486 L160.147 804.788 L156.536 799.915 L154.919 798.385 L153.995 796.742 L153.756 795.175 L148.496 789.243 L146.853 786.398 L140.652 779.219 L135.586 772.1 L134.113 769.375 L127.663 762.846 L124.328 760.497 L121.92 758.297 L116.247 754.833 L109.803 752.868 L76.6693 745.566 "/></g><g><path fill="#304a85" fill-rule="evenodd" d="M-656 936 L-656 935 L-655 935 L-655 935.5 L-655.5 936 L-656 936 "/></g><g><path fill="#304a85" fill-rule="evenodd" d="M-655 935 L-655 934.5 L-654.5 934 L-654 934 L-654 934.5 L-654.5 935 L-655 935 "/></g><g><path fill="#304a85" fill-rule="evenodd" d="M-654 934 L-654 933.5 L-653.5 933 L-653 933 L-653 933.5 L-653.5 934 L-654 934 "/></g><g><path fill="#304a85" fill-rule="evenodd" d="M-651 931 L-651 930.5 L-650.5 930 L-650 930 L-650 930.5 L-650.5 931 L-651 931 "/></g><g><path fill="#304a85" fill-rule="evenodd" d="M-650 930 L-650 929.5 L-649.5 929 L-649 929 L-649 929.5 L-649.5 930 L-650 930 "/></g><g><path fill="#304a85" fill-rule="evenodd" d="M-649 929 L-649 928.5 L-648.5 928 L-648 928 L-648 928.5 L-648.5 929 L-649 929 "/></g><g><path fill="#000000" fill-rule="evenodd" d="M-787.5 975 L-791 974.375 L-796.75 974.875 L-796.75 971.25 L-790 969.5 L-771 966.375 L-766.5 965 L-765 963.5 L-765 962.5 L-764 961.5 L-765 960.5 L-766 957.5 L-767.5 956 L-770.5 954 L-774.5 951 L-777 949.5 L-778.5 949 L-780.5 947 L-783 946.375 L-792 942.5 L-798.5 939 L-806.5 933 L-808.5 932 L-811 929.5 L-810.75 927.125 L-806 927.75 L-800 931.5 L-798.5 932 L-798 932.5 L-799 933.5 L-798.5 934 L-788 939.375 L-778 943.5 L-766.5 951 L-761 956.5 L-760.625 959 L-760.75 965 L-761 966.5 L-763.5 969 L-773 971.5 L-786.75 973.125 L-787 974.5 L-787.5 975 "/></g><g><path fill="#000000" fill-rule="evenodd" d="M-801.5 927 L-803 925.5 L-803 922.5 L-801.5 921 L-800.25 920.75 L-799.75 919.25 L-798.5 919 L-797 920.5 L-797.5 922 L-798.5 924 L-799.25 925.75 L-800.5 926 L-801.5 927 "/></g><g><path fill="#304a85" fill-rule="evenodd" d="M-549 864 L-549 863.5 L-548.5 863 L-547 863 L-547 863.5 L-547.5 864 L-549 864 "/></g><g><path fill="#304a85" fill-rule="evenodd" d="M-547 863 L-547 862.5 L-546.5 862 L-546 862 L-546 862.5 L-546.5 863 L-547 863 "/></g><g><path fill="#304a85" fill-rule="evenodd" d="M-560 870 L-560 869.5 L-558.5 868 L-552 864.625 L-549 864 L-550.5 866 L-552 866.5 L-558 869.5 L-560 870 "/></g><g><path fill="#304a85" fill-rule="evenodd" d="M-648 928 L-648 926.5 L-646 924.5 L-645.75 923.25 L-634.5 915 L-632 913.5 L-608.5 897 L-606.5 896 L-605 894.5 L-604.75 893.25 L-603 892.5 L-595 886.5 L-580 878.625 L-575 876.5 L-569 873.625 L-566.5 873 L-564.5 871 L-560 870 L-561.5 872 L-563 872.5 L-583.5 884 L-592 889.5 L-596.5 892 L-624.5 910 L-633.5 917 L-636.5 919 L-648 928 "/></g><g><path fill="#000000" fill-rule="evenodd" d="M-758 921.25 L-766 921.5 L-777.5 919 L-779.5 917 L-780.5 917 L-782 915.5 L-781.75 913.25 L-780.5 913 L-778.5 915 L-767 917.5 L-759.5 918 L-759 917.5 L-761 915.5 L-761 914.5 L-760.5 914 L-759.5 915 L-757.5 915 L-754 918.5 L-755 919.5 L-755.25 920.75 L-758 921.25 "/></g><g><path fill="#000000" fill-rule="evenodd" d="M-762 879 L-760 880.5 L-760.25 882.75 L-762 883.25 L-777.5 883 L-779 884.5 L-779 886.5 L-777 888.5 L-777 889.5 L-772.5 894 L-771 894.5 L-760 900.5 L-758.5 901 L-756 903.5 L-756 904.5 L-757.5 906 L-791.5 907 L-793 905.5 L-792.75 903 L-765 903 L-765.5 902 L-767 901.5 L-773 898.5 L-774.5 898 L-781 891.5 L-783.375 887 L-783.375 883 L-783 881.5 L-781.5 880 L-777 878.75 L-763 879 L-762.5 880 L-762 879 "/></g><g><path fill="#000000" fill-rule="evenodd" d="M-763 879 L-763.5 878 L-764 876.5 L-763.5 876 L-762 877.5 L-762 879 L-763 879 "/></g><g><path fill="#000000" fill-rule="evenodd" d="M-762 870.375 L-768.5 870 L-770.5 868 L-771.5 868 L-774 865.5 L-774 864.5 L-778 860.5 L-778.5 858 L-778.5 854 L-778 850.5 L-777 849.5 L-777.5 849 L-780 848.375 L-792 843.625 L-796 842.5 L-802.75 839.75 L-803 837.5 L-801.5 836 L-797 836.625 L-792 838.375 L-788 839.25 L-776 839.375 L-766.5 838 L-764.5 836 L-763.5 837 L-763 836.5 L-763 834 L-762 834.5 L-761.625 836 L-761 839.5 L-762.5 841 L-773 843.5 L-779 844 L-778.5 845 L-773.5 846 L-771.5 848 L-767.5 850 L-762 855.5 L-762 857.5 L-760 859.5 L-759.625 861 L-758.5 864 L-758 866.5 L-760 868.5 L-760.25 869.75 L-762 870.375 M-775.5 851 L-775 850 L-776.5 850 L-777 851 L-775.5 851 M-764.5 867 L-763 865.5 L-763.625 863 L-765.5 859 L-766 857.5 L-770.5 853 L-772.5 852 L-774.875 851.25 L-774.25 857 L-772 861.5 L-769.5 864 L-767.5 865 L-764.5 867 "/></g><g><path fill="#000000" fill-rule="evenodd" d="M-763.5 834 L-765 832 L-764.5 831 L-763 832.5 L-763 833.5 L-763.5 834 "/></g><g><path fill="#000000" fill-rule="evenodd" d="M-765 831 L-766 831 L-766 830 L-765 830 L-765 831 "/></g><g><path fill="#000000" fill-rule="evenodd" d="M-766 830 L-767 830 L-767 829 L-766 829 L-766 830 "/></g><g><path fill="#000000" fill-rule="evenodd" d="M-767 829 L-768 828 L-768 827 L-767 827.5 L-767 829 "/></g><g><path fill="#000000" fill-rule="evenodd" d="M59 737 L58 737 L58 736 L59 736 L59 737 "/></g><g><path fill="#000000" fill-rule="evenodd" d="M60 734 L59 734 L59 733 L60 733 L60 734 "/></g><g><path fill="#000000" fill-rule="evenodd" d="M61 731 L60 731 L60 730 L61 730 L61 731 "/></g><g><path fill="#000000" fill-rule="evenodd" d="M62 730 L61 730 L61 729 L62 729 L62 730 "/></g><g><path fill="#000000" fill-rule="evenodd" d="M62 728 L61 728 L61 727 L62 727 L62 728 "/></g><g><path fill="#000000" fill-rule="evenodd" d="M63 724 L62 723 L62 722 L63 722.5 L63 724 "/></g><g><path fill="#000000" fill-rule="evenodd" d="M62 736 L61 735.5 L61 732.5 L63 730.5 L63.5 726 L65 720.5 L65 720 L66 720.5 L65 726.5 L64 727.5 L65 728.5 L64 731.5 L62 733.5 L62 736 "/></g><g><path fill="#000000" fill-rule="evenodd" d="M64 722 L63 721 L63 720 L64 720.5 L64 722 "/></g><g><path fill="#000000" fill-rule="evenodd" d="M57 741.375 L54.5 742 L50 737.5 L50.625 732 L54.625 714 L54.625 711 L53 702.5 L49.5 699 L47 698.5 L43 698.625 L40.5 700 L23 713.5 L21 714.375 L17.5 715 L16 713.5 L18 690.5 L16 688.5 L16 687.5 L17.5 686 L20.5 687 L22 688.5 L22.75 695 L22 703.5 L21 704.5 L22 705.5 L21 706.5 L21 708.5 L21.5 709 L22.5 708 L38.5 696 L41 694.75 L51.5 695 L57 700.5 L58.25 707 L58.375 718 L57.5 723 L55.5 731 L55 736.5 L56.5 738 L57.5 737 L58 737.5 L58 738.5 L58.5 739 L60 737.5 L60 736 L61 736.5 L61 738.5 L58.5 741 L57 741.375 "/></g><g><path fill="#000000" fill-rule="evenodd" d="M-5 711.375 L-15 711.375 L-19 710.375 L-23.75 707.75 L-24.5 706 L-25.5 704 L-26.25 702 L-26.5 697 L-25.375 693 L-24.5 691 L-24 689.5 L-16.5 682 L-14 681.5 L-11 680.5 L-8 680.625 L-6.25 681.25 L-4.75 684.875 L0.75 685.125 L2.375 690 L3.5 697 L3.25 706 L3 707.5 L0.5 710 L-5 711.375 M-7.5 686 L-7 685.5 L-8.5 684 L-9.5 684 L-11 685.5 L-10.5 686 L-7.5 686 M-13 686 L-13 685 L-14 685 L-14 686 L-13 686 M-5 687 L-5 686 L-6 686 L-6 687 L-5 687 M-6 707.375 L-2.5 707 L-1 705.5 L-2.25 691.125 L-11 691.75 L-15.75 690.875 L-16.25 689.25 L-17.5 689 L-20 691.5 L-21.25 695 L-21.375 701 L-21 703.5 L-18.5 706 L-13 707.375 L-6 707.375 "/></g><g><path fill="#000000" fill-rule="evenodd" d="M-36.25 708.75 L-38.5 709 L-40 707.5 L-36 680.5 L-34.5 679 L-33.5 679 L-32.5 678 L-32 678.5 L-32 679.5 L-31 680.5 L-32 681.5 L-35.75 707 L-36.25 708.75 "/></g><g><path fill="#000000" fill-rule="evenodd" d="M-82 701 L-83 700.5 L-83 698 L-82 698.5 L-82 701 "/></g><g><path fill="#000000" fill-rule="evenodd" d="M-125 699 L-126 699 L-126 698 L-125 698 L-125 699 "/></g><g><path fill="#000000" fill-rule="evenodd" d="M-124 697 L-125 697 L-125 696 L-124 696 L-124 697 "/></g><g><path fill="#000000" fill-rule="evenodd" d="M-84.5 704 L-86.5 704 L-88 702.5 L-89 686.5 L-89.5 686 L-95.5 692 L-102.5 692 L-107 687.5 L-107.25 686 L-108.5 681 L-108.5 677 L-108 674.5 L-102.5 669 L-101 668.75 L-93 668.75 L-89 670.375 L-86.5 671 L-84.5 673 L-83.5 673 L-82 674.5 L-83 675.5 L-84.25 699 L-83 702.5 L-84.5 704 M-97.5 688 L-95.5 686 L-94.5 686 L-86.5 678 L-84.5 678 L-84 677 L-84.5 677 L-85.75 676.75 L-86.25 675.25 L-90 674.375 L-95 672.625 L-99.5 672 L-103 675.5 L-103.25 677 L-103.375 683 L-103 685.5 L-100.5 688 L-97.5 688 "/></g><g><path fill="#000000" fill-rule="evenodd" d="M-165.5 687 L-167 685.5 L-167.625 682 L-168.25 680.25 L-170.5 680 L-172 681.5 L-177 699.5 L-179.5 702 L-180.5 702 L-183 699.5 L-184.75 688 L-184 676.5 L-185 675.5 L-183.5 674 L-180.25 675.25 L-180 677.5 L-181 678.5 L-180 679.5 L-180 691 L-179 690.5 L-178.5 687 L-177 680.5 L-172.5 676 L-166.5 675 L-164 677.5 L-164 679.5 L-163 680.5 L-164 681.5 L-165 684.5 L-164 685.5 L-165.5 687 "/></g><g><path fill="#000000" fill-rule="evenodd" d="M-202.5 701 L-204.5 701 L-206 699.5 L-209 673.5 L-210 672.5 L-209 671.5 L-208.75 670.25 L-207 669.5 L-205 669.5 L-203.5 670 L-203 670.5 L-205 672.5 L-204.625 674 L-203.5 677 L-203 679.5 L-203 680 L-202 679.5 L-201 676.5 L-197.5 673 L-194.5 673 L-192 675.5 L-191 679.5 L-190.5 680 L-189.5 679 L-189 679.5 L-189.25 680.75 L-190.5 681 L-192.5 683 L-193.5 682 L-194.75 681.75 L-195.25 679.25 L-196.5 679 L-198 680.5 L-199 687.5 L-200 688.5 L-199 689.5 L-200 690.5 L-201 699.5 L-202.5 701 "/></g><g><path fill="#000000" fill-rule="evenodd" d="M-224 700.25 L-235.5 700 L-237.5 698 L-238.5 698 L-241 695.5 L-243.25 691 L-244.625 683 L-244.5 679 L-243.5 676 L-243 673.5 L-239.5 670 L-236 668.75 L-231 668.75 L-229.5 669 L-227.5 671 L-225.5 669 L-224 669.5 L-221.5 669 L-219.5 668 L-219 668.5 L-223 672.5 L-222 673.5 L-221.375 676 L-219.375 681 L-217 685.5 L-212 690.5 L-213 691.5 L-213 693.5 L-217.5 698 L-219 698.5 L-221 699.375 L-224 700.25 M-227 696.5 L-223 695.375 L-221 694.5 L-219.5 694 L-218 692.5 L-218.5 691 L-222.5 685 L-224.375 681 L-225.25 678.25 L-226.5 678 L-227.5 679 L-229 677.5 L-230 674.5 L-231.5 673 L-236 673.75 L-237.75 674.25 L-239.25 679 L-239 690.5 L-233.5 696 L-227 696.5 "/></g><g><path fill="#000000" fill-rule="evenodd" d="M-311 711 L-311 710.5 L-310.5 710 L-310 711 L-311 711 "/></g><g><path fill="#000000" fill-rule="evenodd" d="M-384 704 L-384 703.5 L-383.5 703 L-383 703 L-383 704 L-384 704 "/></g><g><path fill="#000000" fill-rule="evenodd" d="M-383 703 L-383 702.5 L-382.5 702 L-382 702 L-382 703 L-383 703 "/></g><g><path fill="#000000" fill-rule="evenodd" d="M-382 702 L-382 701.5 L-381.5 701 L-381 702 L-382 702 "/></g><g><path fill="#000000" fill-rule="evenodd" d="M-383 704 L-382.5 704 L-382 703.5 L-382 703 L-381.5 703 L-381 702.5 L-381 702 L-379.5 702 L-379 702.5 L-381 704.5 L-380 707.5 L-381.5 709 L-390.5 709 L-391 709.5 L-390 710.5 L-389.25 715 L-389.25 717 L-390.75 722 L-391.5 724 L-395 729.5 L-396.5 731 L-399.5 732 L-402.5 735 L-405 735.625 L-409 737.25 L-414 738.375 L-427.5 738 L-432 733.5 L-433.25 730 L-433.25 721 L-432.5 718 L-430.5 713 L-427.5 708 L-425 704.5 L-420.5 699 L-418 695.5 L-414.5 692 L-410.5 690 L-407.5 687 L-402.5 687 L-401 688.5 L-401 690.5 L-402.5 692 L-403.75 692.25 L-404.25 693.75 L-405.75 693.75 L-406 692.5 L-406.5 692 L-408.5 694 L-409.5 694 L-417 701.5 L-423.5 710 L-426.5 715 L-427.375 717 L-428.375 721 L-429 729.5 L-427 731.5 L-427 732.5 L-425.5 734 L-423 734.375 L-417 734.5 L-412 733.375 L-409 732.375 L-405 730.5 L-400.5 728 L-396 723.5 L-394.625 719 L-394 713.5 L-395.5 712 L-404.5 711 L-406 709.5 L-406 707.5 L-404.5 706 L-384 704 L-383.5 705 L-383 704 "/></g><g><path fill="#000000" fill-rule="evenodd" d="M-768 715 L-768.5 715 L-769 714.5 L-768 714 L-768 715 "/></g><g><path fill="#000000" fill-rule="evenodd" d="M-768 714 L-768 712.5 L-767.5 712 L-763 716.5 L-763 718.5 L-764.5 720 L-769 721.375 L-775.5 722 L-777 723.5 L-770 732.5 L-768 734.5 L-768 737.5 L-769.5 739 L-777.5 740 L-778 740.5 L-776.5 742 L-773.5 743 L-771 745.5 L-769 749.5 L-766 752.5 L-767 753.5 L-767.25 754.875 L-787 754.875 L-789 755.5 L-791 755.5 L-792.75 754.75 L-793 753.5 L-794 752.5 L-793.5 752 L-785 749.375 L-775.25 749.875 L-775.25 747.25 L-777 746.5 L-782.5 743 L-784.5 742 L-790 736.5 L-790 734.5 L-788.5 733 L-774.5 735 L-774 734.5 L-775 733.5 L-782 724.5 L-783.5 723 L-784.5 723 L-786 721.5 L-785.75 719.25 L-782.5 718 L-781.5 719 L-780.5 718 L-768.25 716.75 L-768 715 L-767 714.5 L-768 714 M-778.5 740 L-778 739 L-779.5 739 L-780 740 L-778.5 740 "/></g><g><path fill="#000000" fill-rule="evenodd" d="M-768 712 L-769 712 L-769 711 L-768 711 L-768 712 "/></g><g><path fill="#000000" fill-rule="evenodd" d="M-769 711 L-770 711 L-770 710 L-769 710 L-769 711 "/></g><g><path fill="#000000" fill-rule="evenodd" d="M-770.5 710 L-771.5 710 L-773 708.5 L-772.5 708 L-771.5 708 L-770 709.5 L-770.5 710 "/></g><g><path fill="#000000" fill-rule="evenodd" d="M-752.5 706 L-758 705.25 L-760 704.5 L-777 695.625 L-789 690.5 L-793 688.5 L-794.5 688 L-799 683.5 L-799.375 682 L-799.75 679.25 L-798 679.5 L-791.5 684 L-789.5 686 L-787 686.625 L-773 692.5 L-770.5 694 L-768.25 694.75 L-768 693.5 L-767.5 693 L-766.5 694 L-764 694.625 L-758 697.5 L-756.5 698 L-754.5 700 L-752.25 700.25 L-751 704.5 L-752.5 706 M-760.5 699 L-760 698.5 L-761.5 697 L-763 696.5 L-765 695.625 L-767.5 695 L-768 696 L-767.5 696 L-766 696.5 L-762 698.5 L-760.5 699 "/></g><g><path fill="#000000" fill-rule="evenodd" d="M-757 669 L-758.5 669 L-759 668.5 L-759 668 L-757.5 668 L-757 668.5 L-757 669 "/></g><g><path fill="#000000" fill-rule="evenodd" d="M-759 668 L-761.5 668 L-763 666.5 L-763 666 L-761 666.5 L-759 668 "/></g><g><path fill="#000000" fill-rule="evenodd" d="M-35.25 663.75 L-36.5 664 L-41 659.5 L-42 655.5 L-39.5 653 L-36 653.625 L-32.25 655.25 L-32 656.5 L-33.5 658 L-35.75 658.25 L-35.25 663.75 "/></g><g><path fill="#000000" fill-rule="evenodd" d="M-61.25 702.75 L-64.75 701.75 L-65.5 699 L-65.375 695 L-60.5 683 L-60.25 679.25 L-62 678.75 L-71.5 678 L-72.5 679 L-73 678.5 L-72.875 674.25 L-70 673.625 L-64 673.5 L-60.5 674 L-59.5 675 L-58 673.5 L-57.25 668 L-52 649.5 L-50.5 648 L-49.5 648 L-48 649.5 L-48.5 653 L-54 675.5 L-52.5 677 L-49.25 678.25 L-49 679.5 L-47 681.5 L-47.5 682 L-53.5 681 L-54.5 680 L-55 680.5 L-55.375 682 L-58.25 690 L-61.25 702.75 "/></g><g><path fill="#000000" fill-rule="evenodd" d="M-131 706.25 L-140.5 706 L-142 704.5 L-142.5 703 L-146.25 694.125 L-150.5 694 L-153 691.5 L-153 690.5 L-151.5 689 L-149.5 689 L-148.5 690 L-148 689.5 L-148.25 674 L-147 667.5 L-145.5 666 L-144 665.625 L-140.5 665 L-136 669.5 L-134.75 673 L-134.75 683 L-136 687.5 L-142 693.5 L-141 694.5 L-140.625 696 L-139.375 699 L-139 700.5 L-136.5 703 L-132.5 703 L-130.5 701 L-129.5 701 L-127.5 699 L-127 699.5 L-127 700.5 L-126.5 701 L-123 697.5 L-122.5 694 L-120.625 687 L-115.375 650 L-112.75 640.25 L-110.25 640.25 L-109 643.5 L-110 644.5 L-109 645.5 L-110 646.5 L-112.5 657 L-116 690.5 L-118 692.5 L-118 695.5 L-119 696.5 L-118.5 697 L-117.25 697.25 L-117 698.5 L-119.5 701 L-121.75 700.75 L-122 699.5 L-122.5 699 L-125.5 702 L-126.75 702.25 L-127 703.5 L-129.5 706 L-131 706.25 M-142.5 688 L-141 686.5 L-141 685.5 L-139 683.5 L-138.25 679 L-138.375 677 L-140 671.5 L-141.5 670 L-142.75 670.25 L-144.75 678 L-144 686.5 L-142.5 688 "/></g><g><path fill="#000000" fill-rule="evenodd" d="M-255 660 L-256 660 L-256 659 L-255 659 L-255 660 "/></g><g><path fill="#000000" fill-rule="evenodd" d="M-250.5 703 L-252.5 703 L-255 700.5 L-255.5 699 L-258.5 694 L-259 692.5 L-261 690.5 L-261 687.5 L-262.5 686 L-265 688.5 L-265.25 689.75 L-271 693.5 L-273 694.25 L-278.5 695 L-283 690.5 L-284.25 686 L-283.25 656 L-282.5 651 L-281.25 646 L-281 644.5 L-279.5 643 L-278.125 643.25 L-278.375 648 L-280.375 683 L-279 688.5 L-277.5 690 L-271.5 689 L-266 683.5 L-266 682.5 L-265 681.5 L-269 677.5 L-269 674.5 L-265.5 671 L-264.5 671 L-264 671.5 L-267 674.5 L-267 675.5 L-263.5 679 L-262.25 678.75 L-262 676.5 L-260 674.5 L-260 672.5 L-258 670.5 L-257.5 669 L-255 664.5 L-254 663.5 L-255 662.5 L-254 659.5 L-255 658.5 L-254.5 658 L-251.25 658.25 L-250 662.5 L-249 663.5 L-250 664.5 L-250.5 666 L-254 672.5 L-256 674.5 L-256 676.5 L-258 678.5 L-258 680.5 L-260 682.5 L-258 684.5 L-257.625 686 L-256.375 689 L-253 694.5 L-252.5 695 L-251.5 694 L-250.25 694.25 L-249.75 696 L-249 701.5 L-250.5 703 M-251 697 L-251 696 L-252 696 L-252 697 L-251 697 "/></g><g><path fill="#000000" fill-rule="evenodd" d="M-355 719.25 L-351.25 717.75 L-350.75 716 L-350.625 708 L-351.5 704 L-354.25 695.25 L-356 695.5 L-362 695.625 L-363.75 696.25 L-365.125 700 L-365.125 713 L-364 717.5 L-362.5 719 L-355 719.25 M-328.5 706 L-327 704.5 L-326 692.5 L-328.5 690 L-329.5 690 L-331.5 688 L-336 686.75 L-342.5 686 L-344 687.5 L-345.375 692 L-345.25 698 L-345 699.5 L-339.5 705 L-328.5 706 M-355 693 L-355 692 L-356 692 L-356 693 L-355 693 M-346 706 L-346 705 L-347 705 L-347 706 L-346 706 M-310 711 L-309 710.5 L-308 706.5 L-306.5 705 L-306 705.5 L-306.625 708 L-307.5 710 L-308 711.5 L-310.5 714 L-317.5 713 L-320 710.5 L-320 709.5 L-322 707.5 L-322 705 L-323 705.5 L-324 708.5 L-325.5 710 L-336 710.375 L-340 709.375 L-342 708.5 L-343.5 708 L-345.5 706 L-346 706.5 L-345.5 710 L-345.5 714 L-347 719.5 L-349.5 722 L-350.5 722 L-352.5 724 L-364.5 723 L-369 718.5 L-369 715.5 L-371 713.5 L-371 711.5 L-370 710.5 L-371 709.5 L-370 697.5 L-368 695.5 L-368 694.5 L-364 690.5 L-363.75 688.25 L-361.5 688 L-360.5 687 L-359.5 688 L-358 687.625 L-355 687.5 L-352.5 688 L-351 689.5 L-351 693 L-350 692.5 L-349.375 689 L-348.5 687 L-348 685.5 L-344.5 682 L-341 681.5 L-338 681.5 L-334 682.625 L-332 683.375 L-329.5 684 L-328.5 685 L-328 684.5 L-330 655.25 L-326.5 654 L-324 656.5 L-321.375 693 L-320.375 698 L-318 705.5 L-316 707.5 L-316 708.5 L-313.5 711 L-311 711 L-310.5 712 L-310 711 "/></g><g><path fill="#000000" fill-rule="evenodd" d="M-763 666 L-764.875 666.25 L-767 680.5 L-772.5 686 L-778.5 686 L-781 683.5 L-781 682.5 L-783 680.5 L-783.625 678 L-786.5 671 L-787.25 668 L-788 660.5 L-785.5 658 L-784.5 659 L-783.5 659 L-782 660.5 L-781 664.5 L-780 665.5 L-780.5 666 L-782.75 666.25 L-782.5 669 L-780.5 674 L-778.5 678 L-778 679.5 L-775.5 682 L-774.5 681 L-773.5 681 L-771 678.5 L-768.5 661 L-767.375 657 L-765 652.5 L-763.5 651 L-759.5 651 L-757 653.5 L-750.5 664 L-750 665.5 L-748 667.5 L-749.25 671.75 L-751 672.375 L-755 672.375 L-757 671.5 L-758.5 671 L-759 671 L-758.5 670 L-757 669 L-755.5 669 L-754 667.5 L-755 666.5 L-755.5 665 L-757.5 661 L-758 659.5 L-761.5 656 L-763 657.5 L-764 663.5 L-765 664.5 L-764.5 665 L-763.25 665.25 L-763 666 "/></g><g><path fill="#000000" fill-rule="evenodd" d="M829 1311 L828 1310 L828 1309 L829 1309.5 L829 1311 "/></g><g><path fill="#000000" fill-rule="evenodd" d="M830 1307 L829 1306.5 L829 1304 L830 1304.5 L830 1307 "/></g><g><path fill="#000000" fill-rule="evenodd" d="M791.5 1287 L789.25 1286.75 L788.625 1285 L788 1281.5 L789.5 1280 L793.5 1280 L794 1280.5 L793 1281.5 L793 1285.5 L791.5 1287 "/></g><g><path fill="#000000" fill-rule="evenodd" d="M827.75 1318.75 L825.5 1319 L824 1317.5 L824 1315.5 L823 1314.5 L824 1313.5 L822 1311.5 L821 1303.5 L821 1303 L820 1303.5 L820 1305.5 L818 1307.5 L818 1308.5 L811.5 1315 L806 1318.25 L799.5 1319 L796 1315.5 L795.5 1314 L795.375 1312 L796.625 1309 L799 1304.5 L803.5 1300 L808 1297.75 L815 1297.75 L816.5 1298 L817.5 1299 L818 1298.5 L818.5 1297 L820.625 1292 L823.375 1287 L824.625 1283 L825.5 1281 L826 1279.5 L828.5 1277 L829.5 1277 L833 1280.5 L832.5 1282 L828.625 1288 L827.625 1291 L826.625 1298 L826 1309.5 L828 1311.5 L828 1314 L829 1313.5 L830.5 1308 L831 1293.5 L833 1291.5 L833.25 1290.25 L834.75 1290.25 L834.5 1293 L830 1314.5 L828 1316.5 L827.75 1318.75 M833 1295 L833 1294 L832 1294 L832 1295 L833 1295 M832 1302 L832 1297.5 L831 1297 L831 1301.5 L832 1302 M803.5 1315 L805.5 1313 L810.5 1310 L813 1307.5 L815 1303.5 L813.5 1302 L812.5 1302 L811.5 1301 L810.5 1302 L808.5 1302 L806.5 1304 L805.5 1304 L803 1306.5 L800.625 1311 L800 1313.5 L801.5 1315 L803.5 1315 "/></g><g><path fill="#000000" fill-rule="evenodd" d="M788.75 1317.75 L787.5 1318 L786.5 1319 L783 1315.5 L782.75 1314 L782.625 1308 L784 1302.5 L785.5 1301 L787.875 1301.25 L787 1310.5 L786 1311.5 L787 1312.5 L787.25 1313.75 L788.75 1314.25 L788.75 1317.75 "/></g><g><path fill="#000000" fill-rule="evenodd" d="M756 1325.5 L752 1325.5 L748 1324.38 L746 1323.5 L744.5 1323 L742 1320.5 L741.75 1319 L741.75 1311 L742.5 1308 L743 1304.5 L744 1303.5 L743.5 1303 L740.5 1303 L739.5 1302 L738.5 1303 L737 1301.5 L737 1299.5 L738.5 1298 L744 1298.75 L745.75 1298.75 L746.5 1296 L752 1281.5 L753.5 1280 L755.5 1280 L757 1281.5 L756.5 1283 L751.375 1296 L751.25 1297.75 L760.5 1297 L761.5 1296 L765 1299.5 L765.25 1300.75 L767.75 1301.25 L767.75 1302.75 L764 1302.38 L762 1301.63 L758 1301.5 L748.25 1303.25 L746.625 1311 L746.125 1318.75 L750 1320.25 L758 1320.25 L760 1319.5 L765.5 1316 L767 1314.5 L767 1313.5 L769 1311.5 L769 1309 L770 1309.5 L771 1316.5 L765.5 1322 L764 1322.5 L760 1324.38 L756 1325.5 "/></g><g><path fill="#000000" fill-rule="evenodd" d="M787.5 1245 L786.5 1245 L786 1244.5 L787 1243.5 L787.25 1242.25 L788.75 1242.25 L789 1243.5 L787.5 1245 "/></g><g><path fill="#000000" fill-rule="evenodd" d="M745.75 1034.75 L743.125 1034.75 L742.875 1030.25 L737 1028.5 L732 1026.5 L730 1025.5 L728.5 1025 L726 1022.5 L726 1021.5 L727.5 1020 L730 1020.63 L739 1024.5 L741.5 1025 L742 1024.5 L741 1023.5 L740.375 1020 L736.5 1010 L734.5 1006 L733.75 1004.25 L732.25 1003.75 L732.25 1002.13 L736.5 1002 L739 1004.5 L739.375 1006 L744.375 1019 L746.25 1025.75 L751 1027.38 L756.5 1028 L759 1025.5 L758.5 1019 L757.25 1014 L756.5 1012 L753.375 1005 L752.75 1003.25 L751 1003.5 L749.5 1004 L749 1003.5 L750.5 1002 L752 1001.5 L754 1000.5 L755.5 1000 L757 1001.5 L757.375 1003 L759.5 1008 L761.375 1012 L763.375 1019 L763.375 1025 L763 1027.5 L758.5 1032 L747.25 1031.25 L745.75 1034.75 "/></g><g><path fill="#c23132" fill-rule="evenodd" d="M707 1019 L707 1018 L708 1018 L708 1018.5 L707.5 1019 L707 1019 "/></g><g><path fill="#000000" fill-rule="evenodd" d="M725 1026.75 L722.5 1027 L721 1025.5 L721.5 1017 L724.625 1000 L725.375 997 L725.25 991 L725 989.5 L726.5 988 L727.5 989 L759.5 987 L761.5 985 L765 988.5 L764.75 990.75 L763 991.5 L761 991.5 L759 991.125 L727.5 992 L727 992.5 L728 993.5 L727.375 1006 L725 1026.75 "/></g><g><path fill="#000000" fill-rule="evenodd" d="M737.5 963 L735.5 963 L733 960.5 L732.5 959 L730.5 955 L729.75 953 L729.625 948 L730 945.5 L732.5 943 L735 942.5 L739 942.625 L741 943.5 L745.5 946 L748 948.5 L750 952.5 L751.5 954 L756 952.75 L779.5 949 L781 950.5 L781 951.5 L779.5 953 L755 956.75 L753.125 957.25 L752.875 961.75 L751 961.5 L749.25 960.75 L749 959.5 L747.5 958 L746.5 959 L742.5 960 L740.5 962 L739.5 961 L737.5 963 M741.75 958.875 L742.25 956.25 L745.5 956 L747 954.5 L744 951.5 L743.75 950.25 L738 946.625 L735 946.625 L733.125 947.25 L733.75 953 L736 957.5 L737.5 959 L741.75 958.875 "/></g><g><path fill="#c23132" fill-rule="evenodd" d="M697 1026 L695.5 1026 L693.5 1028 L685 1029.75 L679 1029.5 L675.5 1030 L674.5 1029 L673.5 1030 L665 1030.5 L659 1031.5 L655 1032.5 L648 1035.38 L641 1037.5 L617 1047.5 L613 1049.38 L609 1050.63 L607 1051.5 L605.5 1052 L603.5 1054 L601.5 1054 L599.5 1056 L596 1057.13 L557 1060.63 L553 1061.5 L539 1065.25 L509 1069.5 L498 1072.5 L488 1076.5 L481 1079.5 L465 1081.88 L463 1081.75 L458 1080.5 L452 1079.5 L448 1078.5 L443 1076.63 L440.5 1076 L438.5 1074 L437 1073.5 L424 1065.63 L421 1064.63 L294 1055.5 L285 1053.5 L256 1043.38 L238.5 1033 L221.5 1018 L218 1014.5 L216.5 1012 L206 998.5 L188 978.5 L186.5 977 L183.5 976 L181.5 974 L179 973.5 L173 971.75 L159 971 L161.5 966 L162 964 L172 964.625 L176 965.5 L185 968.625 L190.5 972 L202 983.5 L202.25 984.75 L203.5 985 L207 988.5 L220.5 1006 L222 1008.5 L235.5 1022 L243.5 1028 L259 1037.38 L293 1048.5 L298 1049.13 L401 1054.5 L421 1057.5 L425 1058.63 L427 1059.5 L433 1063.5 L446 1070.38 L449 1071.5 L462 1074.5 L467 1074.63 L477 1073.25 L480 1072.5 L494 1066.63 L509 1062.63 L539 1058.25 L558 1053.63 L594 1050.25 L598 1048.63 L600.5 1048 L602.5 1046 L604 1045.5 L640 1030.5 L644 1029.5 L652 1026.5 L666 1023.75 L697 1021 L698.5 1020 L699.5 1020 L702 1018 L705.5 1015 L706.5 1015 L707.5 1014 L709 1015.5 L708 1018 L707.5 1017 L707 1017.5 L707 1018 L706 1018.5 L706.5 1019 L707 1019 L704.5 1022 L703.5 1022 L702 1024 L700 1024.5 L697 1026 "/></g><g><path fill="#000000" fill-rule="evenodd" d="M816 914.75 L808.25 914.875 L808.25 911.25 L833.5 909 L834 908.5 L832.5 907 L820.5 900 L815 894.5 L815 893.5 L812 890.5 L811 886.5 L810 885.5 L811 884.5 L811.25 883 L830 882.75 L831.5 883 L832 882.5 L829.5 880 L823 876.5 L821.5 876 L815 869.5 L814.625 868 L814 864.5 L816.5 862 L826 862.625 L834 864.375 L841 865 L840.5 864 L839.5 864 L837 861.5 L837.5 861 L844 864.5 L845.5 865 L847 866.5 L847 867.5 L845.5 869 L837 869.625 L823 866.5 L819.25 866.25 L819 867.5 L822.5 871 L831.5 876 L837 881.5 L838 885.5 L836.5 887 L816.5 887 L816 887.5 L817 888.5 L819 892.5 L821.5 895 L824 896.5 L827.5 899 L841 907.5 L842.5 908 L844 909.5 L844 910.5 L841.5 913 L816 914.75 "/></g><g><path fill="#000000" fill-rule="evenodd" d="M837 861 L836 861 L836 860 L837 860 L837 861 "/></g><g><path fill="#000000" fill-rule="evenodd" d="M753.5 935 L735.5 935 L734 933.5 L735 932.5 L735 931.5 L735.5 931 L736.5 932 L744 932 L743.5 931 L735.5 930 L733 927.5 L733 926.5 L732 925.5 L733 924.5 L733.625 921 L734.5 919 L735 917.5 L736.5 916 L737.5 916 L739 914.5 L738 913.5 L738.5 913 L740.75 913.25 L741 915.5 L738 918.5 L737.375 923 L737.25 925.75 L745 927.5 L754.75 931.25 L755 933.5 L753.5 935 "/></g><g><path fill="#000000" fill-rule="evenodd" d="M749 856 L748.5 856 L748 855.5 L748 855 L748.5 855 L749 855.5 L749 856 "/></g><g><path fill="#000000" fill-rule="evenodd" d="M748 855 L747.5 855 L747 854.5 L747 854 L747.5 854 L748 854.5 L748 855 "/></g><g><path fill="#000000" fill-rule="evenodd" d="M749 853 L750.5 853 L752 854.5 L753.25 858 L754 862.5 L750.5 866 L744.5 867 L744 867.5 L746 869.5 L746 870.5 L750 874.5 L751.375 880 L751.25 887 L749.75 890.75 L748.5 891 L748 891.5 L754 897.5 L755 905.5 L749.5 911 L739.5 912 L737 909.5 L736.75 907.25 L733.5 907 L732 905.5 L732 896.5 L733.5 895 L735 894.5 L740 892.375 L741.5 892 L742 892 L741.5 891 L737.5 889 L733 884.5 L732.625 882 L732.75 876 L733.25 874.25 L735.5 874 L736.5 873 L738 874.5 L737 877.5 L736 878.5 L737 879.5 L737 882.5 L739.5 885 L744 887.5 L745.5 888 L747 886.5 L746.25 878 L743 872.5 L740.5 870 L739.5 870 L737.5 868 L735.5 868 L734.5 867 L733.5 868 L712.5 867 L711 865.5 L711.25 862.125 L744 862.125 L749.5 861 L751 859.5 L750 858.5 L749 856 L750.5 856 L751 855.5 L749 853 M747.5 909 L752 904.5 L751 898.5 L747.5 895 L741 895.75 L737.5 897 L736 898.5 L736.25 900.75 L737.75 901.25 L738 904.5 L739 905.5 L738 906.5 L738.5 907 L739.75 907.25 L740.25 908.875 L747.5 909 "/></g><g><path fill="#000000" fill-rule="evenodd" d="M747 854 L746.5 854 L746 853.5 L747 853 L747 854 "/></g><g><path fill="#000000" fill-rule="evenodd" d="M745 853 L744 853 L744 852 L745 852 L745 853 "/></g><g><path fill="#000000" fill-rule="evenodd" d="M747 853 L747 852.5 L745 850.5 L745.5 850 L746.5 850 L749 853 L747 853 "/></g><g><path fill="#000000" fill-rule="evenodd" d="M745 850 L744 850 L744 849 L745 849 L745 850 "/></g><g><path fill="#000000" fill-rule="evenodd" d="M793 846.5 L788.5 847 L787 845.5 L787.25 843.25 L817 837.5 L822.75 836.875 L822.75 835.125 L797 835.125 L795.25 834.75 L795.25 832.25 L818 823.5 L822.5 821 L827 816.5 L827.375 815 L827.75 812.25 L825 811.625 L795 811.25 L785.5 810 L784 808.5 L785 804.5 L788.5 801 L791.5 800 L793 801.5 L790 804.5 L790 805.5 L791.5 807 L830.5 808 L833 810.5 L832.5 814 L831.5 817 L831 819.5 L827.5 823 L822 826.5 L816 829.375 L813.5 830 L813 830 L813.5 831 L828 831.75 L835.5 833 L837 834.5 L837 836.5 L835.5 838 L834 838.375 L831 839.5 L793 846.5 "/></g><g><path fill="#000000" fill-rule="evenodd" d="M695.5 979 L696 978 L690.5 978 L690 979 L695.5 979 M697 1021 L697 981 L684.5 980 L684 979.5 L686.5 977 L697 975.875 L697 860 L697.5 858 L699.5 854 L700 852.5 L702 851 L702 978.75 L706.75 977.25 L707 978.5 L704.5 981 L702 981.25 L702 1018 L699.5 1020 L698.5 1020 L697 1021 "/></g><g><path fill="#000000" fill-rule="evenodd" d="M700 852 L699 852 L699 851 L700 851 L700 852 "/></g><g><path fill="#000000" fill-rule="evenodd" d="M702 849 L701 849 L701 848 L702 848 L702 849 "/></g><g><path fill="#304ae0" fill-rule="evenodd" d="M703 845 L704 845.5 L703 847 L703 845 "/></g><g><path fill="#304ae0" fill-rule="evenodd" d="M152 825 L151.5 825 L151 824.5 L151 824 L151.5 824 L152 824.5 L152 825 "/></g><g><path fill="#304a85" fill-rule="evenodd" d="M152 825 L152 824.5 L151.5 824 L151 824 L150.375 820 L149 817 L165 821.25 L183 824 L183 825.5 L184 826.5 L184 831 L183 830.75 L161 827.375 L152 825 "/></g><g><path fill="#000000" fill-rule="evenodd" d="M837.5 754 L836 754 L836.5 753 L838 753 L837.5 754 "/></g><g><path fill="#000000" fill-rule="evenodd" d="M835.5 753 L834.5 753 L833 751.5 L833.5 751 L834.5 751 L836 752.5 L835.5 753 "/></g><g><path fill="#000000" fill-rule="evenodd" d="M832.5 751 L831 751 L831.5 750 L833 750 L832.5 751 "/></g><g><path fill="#000000" fill-rule="evenodd" d="M831 750 L830 750 L830 749 L831 749 L831 750 "/></g><g><path fill="#000000" fill-rule="evenodd" d="M829.5 749 L828.5 749 L827 747.5 L827.5 747 L828.5 747 L830 748.5 L829.5 749 "/></g><g><path fill="#000000" fill-rule="evenodd" d="M827 747 L826 747 L826 746 L827 746 L827 747 "/></g><g><path fill="#000000" fill-rule="evenodd" d="M826 746 L825 746 L825 745 L826 745 L826 746 "/></g><g><path fill="#000000" fill-rule="evenodd" d="M792 786.75 L780.25 787.875 L780 785.5 L781.5 784 L800 781.625 L823 781.875 L828.5 781 L829 781 L828.5 780 L827 779.5 L816 775.375 L811.25 772.75 L810.625 771 L810 767.5 L811.5 766 L813 765.5 L822 761.5 L832 758.5 L835.5 758 L837.5 756 L838.5 757 L839.5 757 L840 756.5 L838 754.5 L838.5 754 L839.5 754 L841 755.5 L841.25 756.75 L842.75 757.25 L843 758.5 L844 759.5 L841.5 762 L834 762.75 L824 765.625 L815.5 769 L815 769.5 L816.5 771 L818 771.375 L827 774.625 L831 776.5 L832.5 777 L834 778.5 L835 781.5 L831.5 785 L792 786.75 "/></g><g><path fill="#000000" fill-rule="evenodd" d="M741 850.125 L725.5 850 L724 848.5 L724 846.5 L725.5 845 L727 845.375 L730 846.625 L731.5 847 L732 846.5 L731 845.5 L732 844.5 L732 843 L733 843.5 L733.25 844.75 L734.5 845 L735 845.5 L734 846.5 L734.5 847 L738 846.375 L739.875 845.75 L740 841.5 L734.5 836 L733.5 836 L732 834.5 L732 832.5 L733.5 831 L737 830.5 L743.75 827.75 L744 826.5 L745 825.5 L741 821.5 L741 820.5 L739.5 819 L736 818.5 L712.5 814 L711 812.5 L711.25 811.25 L713 810.5 L715 810.25 L734 813.5 L738 814.5 L741.5 815 L742 814.5 L741 813.5 L740 810.5 L737.5 808 L736 807.5 L731.5 805 L727 800.5 L727 799.5 L726 798.5 L727 797.5 L727.25 796.25 L728.75 796.25 L729 797.5 L730.5 799 L732 799.5 L737 802.375 L740 803.5 L743 803.5 L746 802.375 L747.5 802 L750 799.5 L749.5 795 L748 789.5 L747 788.5 L748 787.5 L747.5 787 L746.5 787 L746 786.5 L747 785.5 L745.5 784 L736.5 784 L735.5 783 L731.5 787 L729.5 787 L728 785.5 L728.25 783.25 L729.5 783 L730 783 L729.5 782 L720.25 779.75 L720.25 776.25 L724 776.5 L732 778.625 L734 778.5 L735.5 778 L736 777.5 L735 776.5 L737 774.5 L736 773.5 L736.25 771.25 L737.75 771.25 L738.375 773 L738.25 780 L749.5 779 L751 777.5 L750 776.5 L749.75 775.25 L748.5 775 L747 773.5 L747.5 773 L751 773.625 L752.5 774 L754 775.5 L755 779.5 L752.5 782 L749.25 783.25 L749.625 786 L752.375 792 L753.375 795 L753.25 801 L753 802.5 L749.5 806 L745.5 807 L744 808.5 L745.25 812 L746 817.5 L744.5 819 L742.5 819 L742 819.5 L747 824.5 L747.25 825.75 L748.75 826.25 L749 828.5 L745.5 832 L741.5 833 L740 834.5 L741 835.5 L744.25 841 L744.25 847 L744 848.5 L742.5 850 L741 850.125 "/></g><g><path fill="#000000" fill-rule="evenodd" d="M712.5 771 L709.25 770.75 L709.625 768 L710.25 766.25 L714.75 763.75 L715 762.5 L716.5 761 L717.5 761 L719 759.5 L720.25 755.25 L721.5 755 L722 755.5 L721 756.5 L720.375 760 L719 762.5 L717 765.5 L716 767.5 L712.5 771 "/></g><g><path fill="#304ae0" fill-rule="evenodd" d="M702 849 L702 848 L701 848 L701 849 L702 849 M700 852 L700 851 L699 851 L699 852 L700 852 M697 860 L696.5 860 L691.5 865 L689 864.375 L687 863.5 L680 859.5 L668.5 855 L666.5 853 L664 852.375 L662 851.5 L656.5 848 L654 846.625 L646 843.5 L631 836.5 L621 833.5 L599 824.5 L586 818.5 L581 815.5 L568 810.625 L491 788.5 L487 787.875 L454 787.75 L442 789.5 L432 792.5 L422 796.375 L394 802.5 L368 810.5 L356 812.5 L329 819.375 L184 831 L184 826.5 L183 825.5 L183 824 L264 819.5 L289 815.75 L330 812.375 L334 811.5 L357 805.5 L368 803.5 L383 799.375 L390 796.625 L418 790.5 L438 783.5 L457 780.75 L487 780.875 L491 781.5 L568 803.5 L582 808.625 L586 810.5 L591 813.5 L598 816.5 L639 832.5 L659 841.5 L665 845.5 L667 846.375 L669.5 847 L671.5 849 L673 849.5 L675 850.375 L679 851.625 L685 854.5 L686.5 855 L688.5 857 L690.5 857 L691.5 858 L694 855.5 L694.5 854 L697 849 L698 848.5 L698.5 847 L699.5 845 L700.25 843.25 L702 843 L703.5 843 L704 843.5 L703 845 L702.25 846.75 L703 847 L703 849.5 L702 850.5 L702 851 L700 852.5 L699.5 854 L697.5 858 L697 860 "/></g><g><path fill="#000000" fill-rule="evenodd" d="M749 762.25 L738.5 762 L737 760.5 L737.25 758.125 L747 758.25 L748.5 758 L752 754.5 L752.5 753 L752.5 751 L752 749.5 L750.5 748 L749 747.625 L745 747.5 L742 748.5 L739 748.5 L732.5 746 L730 743.5 L727.625 739 L726.375 736 L727 733.5 L728.25 731.25 L732.5 730 L733 730.5 L732 731.5 L732 732.5 L730 734.5 L731 735.5 L731.5 737 L732.5 739 L733 740.5 L734.5 742 L735.5 742 L737.5 744 L743.5 744 L748 739.5 L748 737.5 L749 736.5 L747 734.5 L746.75 733.25 L742 730.5 L740 729.75 L724.5 727 L722 724.5 L722 720.5 L726.5 716 L728.5 715 L731.5 713 L734 711.625 L737 710.5 L741 709.5 L744.5 709 L745 709 L744.5 708 L738.5 704 L734 699.5 L734 698.5 L732 696.5 L732 691.5 L733.5 690 L751 690.25 L754 689.375 L758.5 687 L759 687 L758.5 686 L757 686 L757.5 685 L760 685 L759.5 684 L755 684 L755.5 683 L760.5 683 L762 684.5 L761.25 689 L760.75 690.75 L756 693.5 L754 694.125 L737.5 695 L737 695.5 L738 696.5 L738.25 697.75 L745.5 703 L752 709.5 L752 711.5 L750.5 713 L736.5 714 L734.5 716 L733 716.5 L727.25 720.25 L727 721.5 L726 722.5 L726.5 723 L741 725.75 L743 726.5 L745 727.5 L746.5 728 L752 733.5 L752.375 735 L752.5 739 L752 741.5 L748 745.5 L748.5 746 L751.5 746 L757 751.5 L756.375 755 L756 756.5 L750.5 762 L749 762.25 "/></g><g><path fill="#000000" fill-rule="evenodd" d="M727 563 L727 561.5 L726 561 L726 562 L727 563 M697 849 L697 724.5 L695.5 723 L693 723.375 L686.25 725.25 L685.75 726.875 L680.5 727 L679 725.5 L679 724.5 L680.5 723 L682.5 723 L684 721.5 L684 720.5 L685.5 719 L697 719 L697 541.25 L695.5 541 L689 547.5 L686.5 551 L672.75 568.75 L670.5 569 L669 567.5 L669 564.5 L671 562.5 L671.625 560 L672.5 558 L674 555.5 L685 542.5 L689.5 538 L698 535.5 L700.75 535.25 L702.625 543 L703.625 546 L709 557.5 L713.25 563.75 L718 566.375 L721.5 567 L725 563.5 L726 559.5 L726.5 559 L727.5 560 L728 559.5 L728 555 L729 555.5 L728.5 561 L727.375 565 L726.5 567 L726 568.5 L723.5 571 L721 571.625 L719 571.625 L715.5 571 L712.5 568 L711.5 568 L708 564.5 L707 562.5 L703.5 557 L703 555.5 L703 555 L702 555.5 L702 718.5 L703 719.5 L702 720.5 L702 843 L700.25 843.25 L699.5 845 L698.5 847 L698 848.5 L697 849 "/></g><g><path fill="#ac3132" fill-rule="evenodd" d="M159 971 L131.5 969 L129.5 967 L127 967 L130 961 L132.5 961 L134.5 963 L162 964 L161.5 966 L159 971 "/></g><g><path fill="#c23132" fill-rule="evenodd" d="M127 967 L108 961.5 L104 960.75 L84 959.375 L68 962.5 L52 968.5 L35 973.625 L24 978.5 L14 982.5 L-10 989.5 L-33 995.625 L-35 996.375 L-39 997.5 L-50 999.5 L-58 1001.5 L-69 1003.38 L-86 1003.25 L-91 1002.5 L-95 1001.38 L-109 995.5 L-116 992.5 L-118.5 991 L-125.5 986 L-132 982.5 L-142 978.5 L-146 977.5 L-184 961.5 L-185.5 961 L-187.5 959 L-190 958.375 L-195 956.5 L-202 954.5 L-214 952.625 L-233 952.625 L-257.5 956 L-259.5 958 L-261 958.5 L-283 968.5 L-288 970.5 L-292 971.625 L-304 976.5 L-315 979.625 L-322 982.5 L-329 984.625 L-339 990.5 L-358 999.375 L-360.5 1000 L-362.5 1002 L-364 1002.5 L-374 1007.38 L-378 1008.38 L-397 1007.5 L-406 1005.63 L-413 1004.75 L-436.5 1004 L-437.5 1005 L-438.5 1004 L-460 1004.75 L-464 1005.63 L-473 1010.38 L-476 1011.5 L-483 1013.5 L-488 1014.25 L-502 1014.25 L-506 1013.5 L-511 1011.5 L-512.5 1011 L-514.5 1009 L-527.5 1008 L-528.5 1007 L-529.5 1008 L-537 1008.63 L-551 1011.5 L-586 1015.5 L-602 1019.5 L-618 1025.5 L-632 1033.5 L-635 1035.5 L-644.5 1043 L-650.5 1047 L-653 1048.38 L-656 1049 L-656.5 1049 L-658 1047.5 L-657.75 1045.25 L-656 1044 L-654.5 1044 L-650.5 1040 L-640.5 1032 L-637.5 1030 L-635.5 1028 L-633.5 1028 L-630.5 1025 L-626 1022.5 L-624.5 1022 L-622.5 1020 L-620 1019.38 L-616 1017.63 L-585 1008.75 L-549 1004.5 L-541 1002.5 L-535 1001.63 L-522 1001.5 L-513 1002.75 L-511 1003.5 L-506 1006.25 L-498 1008.25 L-490 1008.38 L-481 1006.25 L-476 1004.38 L-467 999.625 L-463 998.5 L-457 997.625 L-415 997.5 L-392 1001.38 L-374.5 1001 L-372.5 999 L-370.5 999 L-368.5 997 L-367 996.5 L-340 983.5 L-333 979.5 L-328 977.5 L-324 976.375 L-314 972.5 L-301.5 969 L-299.5 967 L-297 966.5 L-285 962.375 L-260 950.625 L-252 948.625 L-228 945.5 L-210 946.5 L-196 949.5 L-187 952.625 L-183 954.5 L-181.5 955 L-179.5 957 L-177.5 957 L-175.5 959 L-173 959.625 L-158 965.5 L-149 969.5 L-129 976.625 L-125 978.5 L-119.5 982 L-117.25 983.25 L-116.75 984.75 L-115 985.5 L-95 994.5 L-88 996.5 L-83 997.375 L-73 997.5 L-60 995.5 L-41 991.25 L-13 983.5 L14 975.5 L22 972.375 L23.5 972 L25.5 970 L28 969.375 L72 954.75 L103 953.75 L115 956.5 L126 959.5 L130 961 L127 967 "/></g><g><path fill="#304ae0" fill-rule="evenodd" d="M151 824 L147 823.375 L127 815.5 L117 812.5 L108 808.5 L102 804.625 L99 803.5 L82 798.625 L71 796.625 L50 797.75 L46 798.5 L21 806.625 L19 807.375 L15 808.5 L10 810.5 L7.5 812 L-2.5 820 L-5.5 822 L-17.5 831 L-26.5 837 L-31 839.5 L-32.5 840 L-34.5 842 L-37 842.625 L-79 858.5 L-91 861.5 L-103 863.5 L-139 864.375 L-180 858.5 L-183 857.375 L-190 853.5 L-191.5 853 L-206 838.5 L-206 837.5 L-207.5 836 L-209.5 835 L-212.5 833 L-214.5 832 L-216.5 830 L-218.5 830 L-220.5 828 L-230 825.5 L-239 823.875 L-260 823.5 L-305 829.5 L-333 840.5 L-352.5 853 L-356.5 856 L-366 862.5 L-368 863.5 L-373.5 867 L-376 868.375 L-387 872.5 L-391 873.625 L-395 875.375 L-399 876.5 L-424 880.5 L-430 880.5 L-444 878.5 L-457 875.25 L-463 872.625 L-472 869.375 L-474.5 868 L-483 861.5 L-485 860.875 L-515 861.625 L-538 866.5 L-551 871.5 L-557 875.5 L-563 878.375 L-565.5 879 L-567.5 881 L-570 881.625 L-574 883.5 L-579 885.625 L-590 891.5 L-606.5 904 L-611.5 907 L-636 924.5 L-638.5 926 L-641 928.5 L-642 931.5 L-643.5 933 L-644.5 933 L-650 938.5 L-650.25 940.75 L-652 941.5 L-654 941.5 L-656 941 L-656 936 L-655.5 936 L-655 935.5 L-655 935 L-654.5 935 L-654 934.5 L-654 934 L-653.5 934 L-653 933.5 L-653 933 L-653 932.5 L-651.5 931 L-651 931 L-650.5 931 L-650 930.5 L-650 930 L-649.5 930 L-649 929.5 L-649 929 L-648.5 929 L-648 928.5 L-648 928 L-636.5 919 L-633.5 917 L-624.5 910 L-596.5 892 L-592 889.5 L-583.5 884 L-563 872.5 L-561.5 872 L-560 870 L-558 869.5 L-552 866.5 L-550.5 866 L-549 864 L-547.5 864 L-547 863.5 L-547 863 L-546.5 863 L-546 862.5 L-546 862 L-521 855.625 L-514 854.75 L-482 854.875 L-480 855.5 L-475.5 858 L-470.5 863 L-468 863.5 L-462 865.625 L-453 869.375 L-431 873.5 L-423 873.5 L-399 869.375 L-379 862.375 L-373 858.5 L-371 857.5 L-362 851.5 L-358 848.5 L-338 835.5 L-309 823.5 L-297 820.5 L-241 816.75 L-231 818.5 L-220 821.5 L-215 823.5 L-210.5 826 L-207 828.5 L-204.5 830 L-194 840.5 L-194 841.5 L-190.5 845 L-182.5 850 L-180 851.375 L-155 856.375 L-101 856.5 L-90 854.5 L-82 852.375 L-58 843.5 L-55.5 843 L-53.5 841 L-51 840.5 L-38 835.5 L-29.5 831 L-23.5 827 L4.5 806 L11 802.625 L25 798.375 L27 797.625 L46 791.625 L53 790.75 L75 790.75 L82 791.625 L100 796.5 L105 798.5 L113 803.5 L123 807.5 L134 810.625 L141 813.5 L149 817 L150.375 820 L151 824 "/></g><g><path fill="#000000" fill-rule="evenodd" d="M-673 724 L-673 723 L-674 723 L-674 724 L-673 724 M702 1024 L702 1242 L778.75 1242 L779 1240.5 L769.5 1231 L768 1230.5 L763 1227.5 L756 1224.5 L750 1221.5 L748.25 1220.75 L748.25 1217.25 L749.5 1217 L750.5 1216 L751.5 1217 L755 1217.5 L767 1221.63 L775 1225.5 L777.5 1227 L781 1229.5 L783.5 1231 L785 1232.5 L785.375 1234 L785.75 1237 L784.875 1244.75 L781.25 1246.25 L781 1247.5 L772 1256.5 L772.5 1257 L774 1256.5 L782 1252.5 L784 1251.75 L790 1250.25 L794 1248.63 L796.5 1248 L797 1248 L796.5 1249 L795 1249.5 L771 1260.5 L764 1262.63 L755.5 1266 L754 1264.5 L754 1262.5 L758.5 1258 L761 1257.38 L763 1256.5 L765.5 1255 L769 1252.5 L771.5 1251 L776 1246.5 L775.5 1246 L702 1246 L701 1272.5 L699.5 1274 L698.5 1274 L698 1273.5 L699 1272.5 L699 1269.5 L697 1267.5 L697 1246 L600.125 1246 L600.5 1252 L602.5 1260 L605.25 1266.75 L608.75 1267.25 L608.75 1268.88 L604.5 1269 L599 1263.5 L598.625 1262 L597.5 1259 L594.75 1246 L494.25 1246 L494.625 1250 L495.375 1252 L496 1254.5 L497 1255.5 L496 1256.5 L496 1257.5 L495.5 1258 L492 1254.5 L492 1253.5 L490 1251.5 L489.875 1246 L392.25 1246 L391.5 1248 L391.25 1250 L392.75 1256 L394 1259.5 L396.5 1262 L397.5 1262 L399 1263.5 L398.5 1264 L395 1263.38 L393 1262.5 L391.5 1262 L390 1260.5 L388.75 1257 L387.25 1250 L387.75 1246 L283.25 1246 L283.625 1250 L285.375 1254 L286.25 1256.75 L289.5 1258 L291 1259.5 L290.5 1260 L287 1259.38 L285.5 1259 L281 1254.5 L280.625 1253 L279.5 1250 L278.75 1246 L183.125 1246 L184 1253.5 L187 1256.5 L187 1258.5 L188.5 1260 L189.5 1260 L191 1261.5 L190.5 1262 L187.5 1262 L182 1256.5 L178.75 1246 L78.25 1246 L77.75 1247.75 L76.25 1248.25 L73 1260.5 L73 1261 L74 1260.5 L74 1259.5 L74.5 1259 L75.5 1260 L76.5 1259 L77.75 1259.25 L77.75 1260.75 L73 1263.38 L70.5 1264 L69 1262.5 L69.5 1257 L70.75 1252 L71.5 1250 L72.5 1248 L72.75 1246 L-27.75 1246 L-31.625 1262 L-31.25 1266.75 L-33.5 1267 L-35 1265.5 L-35.625 1263 L-35.625 1261 L-34 1254.5 L-35 1253.5 L-34 1252.5 L-33.625 1251 L-32.375 1248 L-32.25 1246 L-131.875 1246 L-131 1263.75 L-132.75 1263.75 L-134.375 1259 L-135.5 1253 L-136.125 1246 L-239.875 1246 L-239.375 1251 L-237 1259.5 L-235 1261.5 L-235.5 1262 L-237.5 1262 L-241 1258.5 L-241.5 1257 L-242.375 1255 L-243.375 1252 L-244.125 1246 L-338.875 1246 L-338.375 1253 L-337.375 1256 L-337.25 1257.75 L-338.5 1258 L-341 1255.5 L-343.25 1246 L-442.75 1246 L-443.5 1250 L-444 1254.5 L-445 1255.5 L-444 1256.5 L-445 1257.5 L-445 1258.5 L-445.5 1259 L-448 1256.5 L-447 1247.5 L-446 1246.5 L-446.5 1246 L-546.75 1246 L-549.375 1259 L-550 1267.5 L-548 1269.5 L-548.25 1270.75 L-550.5 1271 L-554 1267.5 L-554.75 1263 L-554.625 1261 L-551.5 1249 L-551.25 1246 L-656 1246 L-657 1275.5 L-658.5 1277 L-659.5 1277 L-660 1276.5 L-659 1275.5 L-659 1274.5 L-661 1272.5 L-661 1246 L-706.5 1246 L-709 1243.5 L-708.5 1243 L-661 1242 L-661 988.125 L-677.75 989.875 L-677.75 987.25 L-672.5 986 L-670.5 984 L-668 983.5 L-661 983.75 L-661 729.25 L-665 727.75 L-678.5 726 L-681 723.5 L-681 722.5 L-679.5 721 L-677 720.375 L-675 720.5 L-673 721.375 L-670.5 722 L-668.5 724 L-663.5 724 L-661.5 726 L-661 725.5 L-661 577.25 L-663.5 578 L-666 579.5 L-671 583.5 L-679 590.5 L-683.5 594 L-686 596.5 L-686.25 597.75 L-691.5 601 L-693 599.5 L-692.75 596.25 L-691.5 596 L-679 583.5 L-679 582.5 L-669.5 573 L-665 570.625 L-655 570.625 L-653.5 571 L-650 574.5 L-649.5 576 L-639 596.5 L-637 598.5 L-636.375 601 L-634.625 605 L-634.25 608.75 L-637.5 610 L-639 608.5 L-639.625 605 L-640.375 603 L-641 600.5 L-643 598.5 L-655.25 575.25 L-656.75 575.25 L-656 726.75 L-654.25 727.25 L-654.25 728.75 L-656 729.25 L-656 935 L-656 936 L-656 941 L-656 981.875 L-649.5 983 L-647.5 985 L-647 984.5 L-647 983.5 L-645.5 982 L-645 982.5 L-645 984.5 L-647.5 987 L-656 986.125 L-656 1044 L-657.75 1045.25 L-658 1047.5 L-656.5 1049 L-656 1049 L-656 1242 L-550.5 1242 L-550 1241.5 L-551 1240.5 L-550.75 1238.25 L-547.25 1238.25 L-545.75 1242 L-445.25 1242 L-444.5 1238 L-444.25 1234.25 L-445.5 1234 L-446 1233.5 L-443.5 1231 L-442.5 1231 L-441.5 1230 L-440.5 1231 L-439.5 1231 L-439 1231.5 L-440 1232.5 L-441 1240.5 L-442 1241.5 L-441.5 1242 L-343.25 1242 L-342 1229.5 L-340.5 1228 L-339 1228.25 L-339 1242 L-245.125 1242 L-243.875 1230.25 L-242.5 1230 L-241.5 1229 L-240 1230.5 L-241 1231.5 L-241 1242 L-134.5 1241 L-132.5 1239 L-131 1240.5 L-130.75 1242 L-30.5 1242 L-28.5 1240 L-26.5 1242 L387.75 1242 L388 1239.5 L389.5 1238 L390.75 1238.25 L392.25 1242 L488.75 1242 L488.375 1239 L488 1237.5 L490.5 1235 L493 1237.5 L493.125 1242 L595.75 1242 L597 1238.5 L598.5 1237 L601.5 1237 L603 1238.5 L603 1239.5 L601 1241.5 L601.5 1242 L697 1242 L697 1026 L700 1024.5 L702 1024 M786 1253 L786 1252 L785 1252 L785 1253 L786 1253 M784 1254 L784 1253 L783 1253 L783 1254 L784 1254 M782 1255 L782 1254 L781 1254 L781 1255 L782 1255 M779 1256 L779 1255 L778 1255 L778 1256 L779 1256 M777 1257 L777 1256 L776 1256 L776 1257 L777 1257 M771 1258 L771 1257 L770 1257 L770 1258 L771 1258 M775 1258 L775 1257 L774 1257 L774 1258 L775 1258 M772.5 1259 L773 1258 L771.5 1258 L771 1259 L772.5 1259 M770 1260 L770 1259 L769 1259 L769 1260 L770 1260 "/></g>
</svg>