<svg width="1872" height="1404" viewBox="-936 0 1872 1404" xmlns="http://www.w3.org/2000/svg" xmlns:xlink="http://www.w3.org/1999/xlink" version="1.2" baseProfile="tiny"><title>Vindel</title>\n<g><path fill="none" stroke="#f29eff" stroke-width="30" stroke-linecap="butt" stroke-linejoin="bevel" opacity="0.500008" d="M505.013 755.837 L506.413 757.258 L509.135 758.232 L511.897 758.33 L512.642 758.006 L512.589 757.704 L509.544 756.643 L504.816 753.453 L498.632 750.375 L491.163 748.392 L481.388 747.084 L462.215 746.221 L444.046 746.052 L430.028 746.623 L415.359 748.217 L405.878 749.991 L391.54 753.561 L380.693 756.827 L376.196 758.376 L372.756 759.945 L357.981 764.457 L337.543 771.479 L324.046 776.832 L308.506 784.396 L302.608 786.949 L287.072 795.583 L269.533 806.436 L262.619 811.29 L259.682 812.89 L257.139 814.84 L255.344 816.846 L242.8 827.657 L235.817 833.363 L231.408 837.431 L227.621 841.633 L217.617 850.182 L204.737 863.492 L197.247 873.03 L192.101 880.692 L188.153 885.737 L177.502 901.432 L170.419 914.389 L166.621 919.591 L165.869 922.116 L159.515 935.011 L155.935 945.489 L153.744 950.805 L149.662 969.114 L148.476 983.61 L149.589 995.552 L151.915 1006.42 L157.145 1020.58 L157.258 1022.41 L158.363 1024.39 L160.037 1026.34 L160.826 1028.32 L164.024 1033.78 L165.508 1035.59 L167.601 1037.37 L173.998 1047.05 L177.479 1050.68 L178.696 1052.54 L182.985 1057.63 L187.281 1061.09 L192.105 1066.76 L207.322 1082.49 L212.29 1086.55 L220.8 1094.51 L223.152 1096.46 L229.062 1100.27 L231.059 1102.37 L233.327 1104.13 L238.438 1107.51 L246.662 1112.04 L257.469 1117.12 L264.453 1119.66 L266.701 1120.9 L278.912 1125.12 L287.814 1127.89 L296.686 1130.11 L315.908 1133.71 L328.811 1135.52 L337.808 1136.46 L352.059 1137.38 L374.104 1138.13 L421.352 1138.71 L439.79 1138.19 L450.171 1138.33 L476.126 1136.24 L499.359 1133.79 L544.37 1126.9 L552.46 1126 L580.724 1121.25 L602.415 1116.36 L625.071 1110.35 L637.349 1106.65 L653.625 1100.94 L674.875 1090.36 L688.735 1081.41 L694.164 1077.24 L700.756 1071.32 L710.831 1061.37 L720.892 1049.17 L724.862 1043.31 L727.565 1038.15 L730.793 1030.61 L733.926 1022.1 L734.969 1017.96 L735.422 1013.38 L737.093 1006.33 L737.373 999.059 L738.267 991.597 L737.612 981.978 L737.757 974.1 L736.699 967.184 L736.56 960.256 L735.69 955.563 L734.215 948.688 L732.608 943.967 L731.674 939.192 L730.307 934.607 L730.442 932.354 L729.937 930.06 L728.404 927.822 L723.79 918.225 L717.506 907.07 L713.357 900.33 L707.316 891.862 L704.432 887.289 L701.108 882.937 L695.287 874.056 L686.864 862.579 L685.603 860.238 L680.924 855.791 L677.702 851.183 L673.973 846.718 L670.976 842.145 L666.661 837.538 L662.784 832.823 L658.132 828.177 L646.243 814.391 L641.828 809.716 L634.505 802.616 L624.71 793.897 L608.868 781.771 L597.584 774.131 L583.113 765.337 L568.967 757.289 L547.25 746.704 L533.443 741.609 L527.943 739.078 L487.936 724.886 L476.151 719.888 L457.952 712.852 L443.313 708.778 L435.07 707.321 L429.294 706.774 L423.345 706.643 L414.115 707.085 L364.976 714.582 L350.128 717.932 L343.199 719.924 "/></g><g><path fill="#000000" fill-rule="evenodd" d="M-787.5 975 L-791 974.375 L-796.75 974.875 L-796.75 971.25 L-790 969.5 L-771 966.375 L-766.5 965 L-765 963.5 L-765 962.5 L-764 961.5 L-765 960.5 L-766 957.5 L-767.5 956 L-770.5 954 L-774.5 951 L-777 949.5 L-778.5 949 L-780.5 947 L-783 946.375 L-792 942.5 L-798.5 939 L-806.5 933 L-808.5 932 L-811 929.5 L-810.75 927.125 L-806 927.75 L-800 931.5 L-798.5 932 L-798 932.5 L-799 933.5 L-798.5 934 L-788 939.375 L-778 943.5 L-766.5 951 L-761 956.5 L-760.625 959 L-760.75 965 L-761 966.5 L-763.5 969 L-773 971.5 L-786.75 973.125 L-787 974.5 L-787.5 975 "/></g><g><path fill="#000000" fill-rule="evenodd" d="M-801.5 927 L-803 925.5 L-803 922.5 L-801.5 921 L-800.25 920.75 L-799.75 919.25 L-798.5 919 L-797 920.5 L-797.5 922 L-798.5 924 L-799.25 925.75 L-800.5 926 L-801.5 927 "/></g><g><path fill="#000000" fill-rule="evenodd" d="M-758 921.25 L-766 921.5 L-777.5 919 L-779.5 917 L-780.5 917 L-782 915.5 L-781.75 913.25 L-780.5 913 L-778.5 915 L-767 917.5 L-759.5 918 L-759 917.5 L-761 915.5 L-761 914.5 L-760.5 914 L-759.5 915 L-757.5 915 L-754 918.5 L-755 919.5 L-755.25 920.75 L-758 921.25 "/></g><g><path fill="#000000" fill-rule="evenodd" d="M-762 879 L-760 880.5 L-760.25 882.75 L-762 883.25 L-777.5 883 L-779 884.5 L-779 886.5 L-777 888.5 L-777 889.5 L-772.5 894 L-771 894.5 L-760 900.5 L-758.5 901 L-756 903.5 L-756 904.5 L-757.5 906 L-791.5 907 L-793 905.5 L-792.75 903 L-765 903 L-765.5 902 L-767 901.5 L-773 898.5 L-774.5 898 L-781 891.5 L-783.375 887 L-783.375 883 L-783 881.5 L-781.5 880 L-777 878.75 L-763 879 L-762.5 880 L-762 879 "/></g><g><path fill="#000000" fill-rule="evenodd" d="M-763 879 L-763.5 878 L-764 876.5 L-763.5 876 L-762 877.5 L-762 879 L-763 879 "/></g><g><path fill="#000000" fill-rule="evenodd" d="M-762 870.375 L-768.5 870 L-770.5 868 L-771.5 868 L-774 865.5 L-774 864.5 L-778 860.5 L-778.5 858 L-778.5 854 L-778 850.5 L-777 849.5 L-777.5 849 L-780 848.375 L-792 843.625 L-796 842.5 L-802.75 839.75 L-803 837.5 L-801.5 836 L-797 836.625 L-792 838.375 L-788 839.25 L-776 839.375 L-766.5 838 L-764.5 836 L-763.5 837 L-763 836.5 L-763 834 L-762 834.5 L-761.625 836 L-761 839.5 L-762.5 841 L-773 843.5 L-779 844 L-778.5 845 L-773.5 846 L-771.5 848 L-767.5 850 L-762 855.5 L-762 857.5 L-760 859.5 L-759.625 861 L-758.5 864 L-758 866.5 L-760 868.5 L-760.25 869.75 L-762 870.375 M-775.5 851 L-775 850 L-776.5 850 L-777 851 L-775.5 851 M-764.5 867 L-763 865.5 L-763.625 863 L-765.5 859 L-766 857.5 L-770.5 853 L-772.5 852 L-774.875 851.25 L-774.25 857 L-772 861.5 L-769.5 864 L-767.5 865 L-764.5 867 "/></g><g><path fill="#000000" fill-rule="evenodd" d="M-763.5 834 L-765 832 L-764.5 831 L-763 832.5 L-763 833.5 L-763.5 834 "/></g><g><path fill="#000000" fill-rule="evenodd" d="M-765 831 L-766 831 L-766 830 L-765 830 L-765 831 "/></g><g><path fill="#000000" fill-rule="evenodd" d="M-766 830 L-767 830 L-767 829 L-766 829 L-766 830 "/></g><g><path fill="#000000" fill-rule="evenodd" d="M-767 829 L-768 828 L-768 827 L-767 827.5 L-767 829 "/></g><g><path fill="#000000" fill-rule="evenodd" d="M-768 715 L-768.5 715 L-769 714.5 L-768 714 L-768 715 "/></g><g><path fill="#000000" fill-rule="evenodd" d="M-768 714 L-768 712.5 L-767.5 712 L-763 716.5 L-763 718.5 L-764.5 720 L-769 721.375 L-775.5 722 L-777 723.5 L-770 732.5 L-768 734.5 L-768 737.5 L-769.5 739 L-777.5 740 L-778 740.5 L-776.5 742 L-773.5 743 L-771 745.5 L-769 749.5 L-766 752.5 L-767 753.5 L-767.25 754.875 L-787 754.875 L-789 755.5 L-791 755.5 L-792.75 754.75 L-793 753.5 L-794 752.5 L-793.5 752 L-785 749.375 L-775.25 749.875 L-775.25 747.25 L-777 746.5 L-782.5 743 L-784.5 742 L-790 736.5 L-790 734.5 L-788.5 733 L-774.5 735 L-774 734.5 L-775 733.5 L-782 724.5 L-783.5 723 L-784.5 723 L-786 721.5 L-785.75 719.25 L-782.5 718 L-781.5 719 L-780.5 718 L-768.25 716.75 L-768 715 L-767 714.5 L-768 714 M-778.5 740 L-778 739 L-779.5 739 L-780 740 L-778.5 740 "/></g><g><path fill="#000000" fill-rule="evenodd" d="M-768 712 L-769 712 L-769 711 L-768 711 L-768 712 "/></g><g><path fill="#000000" fill-rule="evenodd" d="M-769 711 L-770 711 L-770 710 L-769 710 L-769 711 "/></g><g><path fill="#000000" fill-rule="evenodd" d="M-770.5 710 L-771.5 710 L-773 708.5 L-772.5 708 L-771.5 708 L-770 709.5 L-770.5 710 "/></g><g><path fill="#000000" fill-rule="evenodd" d="M-752.5 706 L-758 705.25 L-760 704.5 L-777 695.625 L-789 690.5 L-793 688.5 L-794.5 688 L-799 683.5 L-799.375 682 L-799.75 679.25 L-798 679.5 L-791.5 684 L-789.5 686 L-787 686.625 L-773 692.5 L-770.5 694 L-768.25 694.75 L-768 693.5 L-767.5 693 L-766.5 694 L-764 694.625 L-758 697.5 L-756.5 698 L-754.5 700 L-752.25 700.25 L-751 704.5 L-752.5 706 M-760.5 699 L-760 698.5 L-761.5 697 L-763 696.5 L-765 695.625 L-767.5 695 L-768 696 L-767.5 696 L-766 696.5 L-762 698.5 L-760.5 699 "/></g><g><path fill="#000000" fill-rule="evenodd" d="M-757 669 L-758.5 669 L-759 668.5 L-759 668 L-757.5 668 L-757 668.5 L-757 669 "/></g><g><path fill="#000000" fill-rule="evenodd" d="M-759 668 L-761.5 668 L-763 666.5 L-763 666 L-761 666.5 L-759 668 "/></g><g><path fill="#000000" fill-rule="evenodd" d="M-763 666 L-764.875 666.25 L-767 680.5 L-772.5 686 L-778.5 686 L-781 683.5 L-781 682.5 L-783 680.5 L-783.625 678 L-786.5 671 L-787.25 668 L-788 660.5 L-785.5 658 L-784.5 659 L-783.5 659 L-782 660.5 L-781 664.5 L-780 665.5 L-780.5 666 L-782.75 666.25 L-782.5 669 L-780.5 674 L-778.5 678 L-778 679.5 L-775.5 682 L-774.5 681 L-773.5 681 L-771 678.5 L-768.5 661 L-767.375 657 L-765 652.5 L-763.5 651 L-759.5 651 L-757 653.5 L-750.5 664 L-750 665.5 L-748 667.5 L-749.25 671.75 L-751 672.375 L-755 672.375 L-757 671.5 L-758.5 671 L-759 671 L-758.5 670 L-757 669 L-755.5 669 L-754 667.5 L-755 666.5 L-755.5 665 L-757.5 661 L-758 659.5 L-761.5 656 L-763 657.5 L-764 663.5 L-765 664.5 L-764.5 665 L-763.25 665.25 L-763 666 "/></g><g><path fill="#000000" fill-rule="evenodd" d="M829 1311 L828 1310 L828 1309 L829 1309.5 L829 1311 "/></g><g><path fill="#000000" fill-rule="evenodd" d="M830 1307 L829 1306.5 L829 1304 L830 1304.5 L830 1307 "/></g><g><path fill="#000000" fill-rule="evenodd" d="M791.5 1287 L789.25 1286.75 L788.625 1285 L788 1281.5 L789.5 1280 L793.5 1280 L794 1280.5 L793 1281.5 L793 1285.5 L791.5 1287 "/></g><g><path fill="#000000" fill-rule="evenodd" d="M827.75 1318.75 L825.5 1319 L824 1317.5 L824 1315.5 L823 1314.5 L824 1313.5 L822 1311.5 L821 1303.5 L821 1303 L820 1303.5 L820 1305.5 L818 1307.5 L818 1308.5 L811.5 1315 L806 1318.25 L799.5 1319 L796 1315.5 L795.5 1314 L795.375 1312 L796.625 1309 L799 1304.5 L803.5 1300 L808 1297.75 L815 1297.75 L816.5 1298 L817.5 1299 L818 1298.5 L818.5 1297 L820.625 1292 L823.375 1287 L824.625 1283 L825.5 1281 L826 1279.5 L828.5 1277 L829.5 1277 L833 1280.5 L832.5 1282 L828.625 1288 L827.625 1291 L826.625 1298 L826 1309.5 L828 1311.5 L828 1314 L829 1313.5 L830.5 1308 L831 1293.5 L833 1291.5 L833.25 1290.25 L834.75 1290.25 L834.5 1293 L830 1314.5 L828 1316.5 L827.75 1318.75 M833 1295 L833 1294 L832 1294 L832 1295 L833 1295 M832 1302 L832 1297.5 L831 1297 L831 1301.5 L832 1302 M803.5 1315 L805.5 1313 L810.5 1310 L813 1307.5 L815 1303.5 L813.5 1302 L812.5 1302 L811.5 1301 L810.5 1302 L808.5 1302 L806.5 1304 L805.5 1304 L803 1306.5 L800.625 1311 L800 1313.5 L801.5 1315 L803.5 1315 "/></g><g><path fill="#000000" fill-rule="evenodd" d="M788.75 1317.75 L787.5 1318 L786.5 1319 L783 1315.5 L782.75 1314 L782.625 1308 L784 1302.5 L785.5 1301 L787.875 1301.25 L787 1310.5 L786 1311.5 L787 1312.5 L787.25 1313.75 L788.75 1314.25 L788.75 1317.75 "/></g><g><path fill="#000000" fill-rule="evenodd" d="M756 1325.5 L752 1325.5 L748 1324.38 L746 1323.5 L744.5 1323 L742 1320.5 L741.75 1319 L741.75 1311 L742.5 1308 L743 1304.5 L744 1303.5 L743.5 1303 L740.5 1303 L739.5 1302 L738.5 1303 L737 1301.5 L737 1299.5 L738.5 1298 L744 1298.75 L745.75 1298.75 L746.5 1296 L752 1281.5 L753.5 1280 L755.5 1280 L757 1281.5 L756.5 1283 L751.375 1296 L751.25 1297.75 L760.5 1297 L761.5 1296 L765 1299.5 L765.25 1300.75 L767.75 1301.25 L767.75 1302.75 L764 1302.38 L762 1301.63 L758 1301.5 L748.25 1303.25 L746.625 1311 L746.125 1318.75 L750 1320.25 L758 1320.25 L760 1319.5 L765.5 1316 L767 1314.5 L767 1313.5 L769 1311.5 L769 1309 L770 1309.5 L771 1316.5 L765.5 1322 L764 1322.5 L760 1324.38 L756 1325.5 "/></g><g><path fill="#000000" fill-rule="evenodd" d="M787.5 1245 L786.5 1245 L786 1244.5 L787 1243.5 L787.25 1242.25 L788.75 1242.25 L789 1243.5 L787.5 1245 "/></g><g><path fill="#000000" fill-rule="evenodd" d="M745.75 1034.75 L743.125 1034.75 L742.875 1030.25 L737 1028.5 L732 1026.5 L730 1025.5 L728.5 1025 L726 1022.5 L726 1021.5 L727.5 1020 L730 1020.63 L739 1024.5 L741.5 1025 L742 1024.5 L741 1023.5 L740.375 1020 L736.5 1010 L734.5 1006 L733.75 1004.25 L732.25 1003.75 L732.25 1002.13 L736.5 1002 L739 1004.5 L739.375 1006 L744.375 1019 L746.25 1025.75 L751 1027.38 L756.5 1028 L759 1025.5 L758.5 1019 L757.25 1014 L756.5 1012 L753.375 1005 L752.75 1003.25 L751 1003.5 L749.5 1004 L749 1003.5 L750.5 1002 L752 1001.5 L754 1000.5 L755.5 1000 L757 1001.5 L757.375 1003 L759.5 1008 L761.375 1012 L763.375 1019 L763.375 1025 L763 1027.5 L758.5 1032 L747.25 1031.25 L745.75 1034.75 "/></g><g><path fill="#c23132" fill-rule="evenodd" d="M707 1019 L707 1018 L708 1018 L708 1018.5 L707.5 1019 L707 1019 "/></g><g><path fill="#000000" fill-rule="evenodd" d="M725 1026.75 L722.5 1027 L721 1025.5 L721.5 1017 L724.625 1000 L725.375 997 L725.25 991 L725 989.5 L726.5 988 L727.5 989 L759.5 987 L761.5 985 L765 988.5 L764.75 990.75 L763 991.5 L761 991.5 L759 991.125 L727.5 992 L727 992.5 L728 993.5 L727.375 1006 L725 1026.75 "/></g><g><path fill="#000000" fill-rule="evenodd" d="M737.5 963 L735.5 963 L733 960.5 L732.5 959 L730.5 955 L729.75 953 L729.625 948 L730 945.5 L732.5 943 L735 942.5 L739 942.625 L741 943.5 L745.5 946 L748 948.5 L750 952.5 L751.5 954 L756 952.75 L779.5 949 L781 950.5 L781 951.5 L779.5 953 L755 956.75 L753.125 957.25 L752.875 961.75 L751 961.5 L749.25 960.75 L749 959.5 L747.5 958 L746.5 959 L742.5 960 L740.5 962 L739.5 961 L737.5 963 M741.75 958.875 L742.25 956.25 L745.5 956 L747 954.5 L744 951.5 L743.75 950.25 L738 946.625 L735 946.625 L733.125 947.25 L733.75 953 L736 957.5 L737.5 959 L741.75 958.875 "/></g><g><path fill="#000000" fill-rule="evenodd" d="M288 932 L287 932 L287 931 L288 931 L288 932 "/></g><g><path fill="#000000" fill-rule="evenodd" d="M816 914.75 L808.25 914.875 L808.25 911.25 L833.5 909 L834 908.5 L832.5 907 L820.5 900 L815 894.5 L815 893.5 L812 890.5 L811 886.5 L810 885.5 L811 884.5 L811.25 883 L830 882.75 L831.5 883 L832 882.5 L829.5 880 L823 876.5 L821.5 876 L815 869.5 L814.625 868 L814 864.5 L816.5 862 L826 862.625 L834 864.375 L841 865 L840.5 864 L839.5 864 L837 861.5 L837.5 861 L844 864.5 L845.5 865 L847 866.5 L847 867.5 L845.5 869 L837 869.625 L823 866.5 L819.25 866.25 L819 867.5 L822.5 871 L831.5 876 L837 881.5 L838 885.5 L836.5 887 L816.5 887 L816 887.5 L817 888.5 L819 892.5 L821.5 895 L824 896.5 L827.5 899 L841 907.5 L842.5 908 L844 909.5 L844 910.5 L841.5 913 L816 914.75 "/></g><g><path fill="#000000" fill-rule="evenodd" d="M837 861 L836 861 L836 860 L837 860 L837 861 "/></g><g><path fill="#000000" fill-rule="evenodd" d="M753.5 935 L735.5 935 L734 933.5 L735 932.5 L735 931.5 L735.5 931 L736.5 932 L744 932 L743.5 931 L735.5 930 L733 927.5 L733 926.5 L732 925.5 L733 924.5 L733.625 921 L734.5 919 L735 917.5 L736.5 916 L737.5 916 L739 914.5 L738 913.5 L738.5 913 L740.75 913.25 L741 915.5 L738 918.5 L737.375 923 L737.25 925.75 L745 927.5 L754.75 931.25 L755 933.5 L753.5 935 "/></g><g><path fill="#000000" fill-rule="evenodd" d="M749 856 L748.5 856 L748 855.5 L748 855 L748.5 855 L749 855.5 L749 856 "/></g><g><path fill="#000000" fill-rule="evenodd" d="M748 855 L747.5 855 L747 854.5 L747 854 L747.5 854 L748 854.5 L748 855 "/></g><g><path fill="#000000" fill-rule="evenodd" d="M449.75 934.75 L447.5 935 L446 933.5 L445.375 924 L446.625 919 L447 916.5 L449.5 914 L450.875 914.25 L450.75 930 L450.375 933 L449.75 934.75 "/></g><g><path fill="#000000" fill-rule="evenodd" d="M452.5 905 L451.5 905 L449 902.5 L450 894.5 L452.5 892 L454.5 892 L456 893.5 L456 894.5 L454 896.5 L453.5 899 L453.625 902 L454 903.5 L452.5 905 "/></g><g><path fill="#000000" fill-rule="evenodd" d="M424.5 937 L422.5 936 L421 934.5 L420.375 931 L420 929.5 L419.5 929 L415.5 933 L409.5 934 L407.5 932 L407 932.5 L407 933.5 L404.5 936 L403.5 936 L402 934.5 L403 924.5 L402.5 924 L399 927.5 L398.75 928.75 L397.5 929 L392.5 934 L389.25 933.75 L388.75 932 L388 925 L387 925.5 L386.625 927 L384.5 932 L382.625 936 L382 938.5 L380.5 940 L378.5 940 L376 937.5 L375.5 927 L374 916.5 L375.5 915 L377.75 915.25 L379.25 920 L380 930 L381 929.5 L381.625 927 L382.5 925 L385 920.5 L389.5 916 L391.5 916 L393 917.5 L393 918.5 L394 919.5 L393 920.5 L393 926.5 L393.5 927 L400 920.5 L400 919.5 L401.5 918 L405.5 917 L407 918.5 L408 924.5 L408 925 L409 924.5 L409 922.5 L413 918.5 L413 917.5 L414.5 916 L420.5 916 L422 917.5 L422.25 918.75 L423.5 919 L425 920.5 L424.75 922 L424.5 927 L425.25 930.75 L427 930.5 L428.5 930 L431 927.5 L431.375 926 L432.5 923 L433.375 920 L434 892.5 L435.5 891 L437 891.25 L438 927.5 L438.5 928 L440 926.5 L440 925.5 L440.5 925 L442 926.5 L441 927.5 L440 930.5 L438.5 932 L435.25 931.75 L434 927.5 L433.5 927 L431 929.5 L430 932.5 L426.5 936 L425.5 936 L424.5 937 M412.5 929 L413.5 928 L414.5 928 L417 925.5 L419 921.5 L417.5 920 L413 924.5 L412.375 927.5 L412.5 929 M408 928 L408 927 L407 927 L407 928 L408 928 M407 932 L407 931 L406 931 L406 932 L407 932 "/></g><g><path fill="#000000" fill-rule="evenodd" d="M349.75 941.75 L347.5 942 L346 940.5 L346 935.5 L345 934.5 L346 933.5 L345.375 926 L344.5 922 L343.5 919 L343.625 916 L344 914.5 L344.5 914 L346 915.5 L348.75 926 L349 927.5 L349 928 L350 927.5 L350.5 924 L352.25 919.25 L354 918.625 L357 918.625 L358.5 919 L360 920.5 L360.25 921.75 L363.75 922.25 L363.75 923.875 L355.25 923.25 L353.5 931 L351.375 938 L349.75 941.75 "/></g><g><path fill="#000000" fill-rule="evenodd" d="M340.375 933 L338.5 938 L338 939.5 L335.5 942 L334 942.5 L332 943.5 L330 943.625 L327 942.375 L325.5 942 L321 937.5 L320 928.5 L321 927.5 L320 926.5 L321 925.5 L322 920.5 L325.5 917 L327 916.625 L330 916.625 L331.5 917 L332.5 918 L333 917.5 L333 915.5 L335.5 913 L338.75 913.25 L339.25 914.75 L342 915 L341.5 916 L338.25 916.25 L338.375 919 L340.375 928 L340.375 933 M331.5 939 L335 935.5 L335.25 934 L335.375 927 L334.5 923 L334 918.5 L333 918 L333 919.5 L331.5 921 L330.5 920 L329.5 920 L326 923.5 L325 935.5 L327.5 938 L331.5 939 "/></g><g><path fill="#000000" fill-rule="evenodd" d="M289 940.375 L284.25 939.75 L281.625 933 L279.75 924.25 L277.5 923 L274.5 921 L272.25 920.25 L269 936.5 L266.5 939 L264.25 938.75 L263.75 937 L263.625 928 L264.5 924 L272 900.5 L273.5 899 L275.5 899 L276.5 900 L277 899.5 L277.25 898.25 L280.5 898 L282 899.5 L284 921.75 L288.5 923 L290.5 925 L291.5 924 L292.5 924 L293 923.5 L292 922.5 L291 918.5 L289 916.5 L289.25 914.25 L291.5 914 L293 915.5 L293.5 917 L297.5 927 L298 929.5 L299.5 931 L300 930.5 L300.375 929 L302.5 924 L307 915.5 L308.5 914 L310 913.625 L313.5 913 L315 914.5 L316.375 920 L316.75 935 L316.5 937 L315.75 938.75 L312.5 939 L311 937.5 L312 919.25 L310.5 919 L309 920.5 L308.5 922 L304.5 931 L302 935.5 L299.5 938 L298.5 938 L296 935.5 L295.625 934 L294.5 931 L294 927.5 L292.5 926 L291.5 927 L289.25 927.25 L289.5 929 L290.25 931 L291 936.5 L292 937.5 L291 938.5 L290.75 939.75 L289 940.375 M279.5 919 L280 918.5 L278 906.5 L277 906 L277 906.5 L274.5 913 L274.25 915.75 L276.5 917 L279.5 919 M288 935 L288 933.5 L288.5 933 L289.5 934 L290 933.5 L289.5 932 L287.5 928 L286.75 926.25 L285.25 926.25 L285.25 928.75 L286.5 929 L287 929.5 L286 930.5 L287 934.5 L288 935 "/></g><g><path fill="#000000" fill-rule="evenodd" d="M749 853 L750.5 853 L752 854.5 L753.25 858 L754 862.5 L750.5 866 L744.5 867 L744 867.5 L746 869.5 L746 870.5 L750 874.5 L751.375 880 L751.25 887 L749.75 890.75 L748.5 891 L748 891.5 L754 897.5 L755 905.5 L749.5 911 L739.5 912 L737 909.5 L736.75 907.25 L733.5 907 L732 905.5 L732 896.5 L733.5 895 L735 894.5 L740 892.375 L741.5 892 L742 892 L741.5 891 L737.5 889 L733 884.5 L732.625 882 L732.75 876 L733.25 874.25 L735.5 874 L736.5 873 L738 874.5 L737 877.5 L736 878.5 L737 879.5 L737 882.5 L739.5 885 L744 887.5 L745.5 888 L747 886.5 L746.25 878 L743 872.5 L740.5 870 L739.5 870 L737.5 868 L735.5 868 L734.5 867 L733.5 868 L712.5 867 L711 865.5 L711.25 862.125 L744 862.125 L749.5 861 L751 859.5 L750 858.5 L749 856 L750.5 856 L751 855.5 L749 853 M747.5 909 L752 904.5 L751 898.5 L747.5 895 L741 895.75 L737.5 897 L736 898.5 L736.25 900.75 L737.75 901.25 L738 904.5 L739 905.5 L738 906.5 L738.5 907 L739.75 907.25 L740.25 908.875 L747.5 909 "/></g><g><path fill="#000000" fill-rule="evenodd" d="M747 854 L746.5 854 L746 853.5 L747 853 L747 854 "/></g><g><path fill="#000000" fill-rule="evenodd" d="M745 853 L744 853 L744 852 L745 852 L745 853 "/></g><g><path fill="#000000" fill-rule="evenodd" d="M747 853 L747 852.5 L745 850.5 L745.5 850 L746.5 850 L749 853 L747 853 "/></g><g><path fill="#000000" fill-rule="evenodd" d="M745 850 L744 850 L744 849 L745 849 L745 850 "/></g><g><path fill="#000000" fill-rule="evenodd" d="M793 846.5 L788.5 847 L787 845.5 L787.25 843.25 L817 837.5 L822.75 836.875 L822.75 835.125 L797 835.125 L795.25 834.75 L795.25 832.25 L818 823.5 L822.5 821 L827 816.5 L827.375 815 L827.75 812.25 L825 811.625 L795 811.25 L785.5 810 L784 808.5 L785 804.5 L788.5 801 L791.5 800 L793 801.5 L790 804.5 L790 805.5 L791.5 807 L830.5 808 L833 810.5 L832.5 814 L831.5 817 L831 819.5 L827.5 823 L822 826.5 L816 829.375 L813.5 830 L813 830 L813.5 831 L828 831.75 L835.5 833 L837 834.5 L837 836.5 L835.5 838 L834 838.375 L831 839.5 L793 846.5 "/></g><g><path fill="#000000" fill-rule="evenodd" d="M695.5 979 L696 978 L690.5 978 L690 979 L695.5 979 M697 1021 L697 981 L684.5 980 L684 979.5 L686.5 977 L697 975.875 L697 860 L697.5 858 L699.5 854 L700 852.5 L702 851 L702 978.75 L706.75 977.25 L707 978.5 L704.5 981 L702 981.25 L702 1018 L701.5 1018 L699.5 1020 L697 1021 "/></g><g><path fill="#000000" fill-rule="evenodd" d="M700 852 L699 852 L699 851 L700 851 L700 852 "/></g><g><path fill="#000000" fill-rule="evenodd" d="M702 849 L701 849 L701 848 L702 848 L702 849 "/></g><g><path fill="#304ae0" fill-rule="evenodd" d="M703 845 L704 845.5 L703 847 L703 845 "/></g><g><path fill="#c23132" fill-rule="evenodd" d="M492 837 L491 836 L491 835 L492 835.5 L492 837 "/></g><g><path fill="#c23132" fill-rule="evenodd" d="M491 834 L490 833 L490 832 L491 832.5 L491 834 "/></g><g><path fill="#c23132" fill-rule="evenodd" d="M491 830 L490 830 L490 829 L491 829 L491 830 "/></g><g><path fill="#c23132" fill-rule="evenodd" d="M469 1050.5 L466.5 1053 L462.5 1052 L461 1050.5 L460 1048.5 L455.75 1042.25 L445.25 1033.75 L445 1032.5 L443 1030.5 L443 1028.5 L444.5 1027 L446.5 1028 L450.5 1031 L453.5 1033 L460 1039.5 L460 1040.5 L464.5 1045 L465 1044.5 L464.375 1040 L464.375 1037 L468.5 1016 L469 1008.5 L465.5 1005 L464.5 1005 L463 1003.5 L463 1002.5 L463.5 1002 L465.5 1004 L466.5 1004 L468.5 1006 L469 1005.5 L467 956.5 L468 955.5 L467 954.5 L470.625 933 L474.5 920 L475 916.5 L476 915.5 L475 914.5 L475 912.5 L476 911.5 L475 910.5 L475.25 845 L474 830.25 L472.5 830 L469 833.5 L469 834.5 L467 836.5 L466.375 839 L463.375 847 L463 848.5 L461.5 850 L459.25 849.75 L459 848.5 L458 847.5 L459 846.5 L459.5 844 L467.5 823 L469.5 819 L470 817.5 L472.5 815 L473.5 815 L474.5 814 L475.5 815 L476.75 815.25 L477 818.5 L478.5 820 L479.75 820.25 L481 822.5 L484.5 828 L487 832.5 L490.5 838 L491 839.5 L491 840 L492 839.5 L492.5 837 L492.375 834 L491.5 832 L491 830.5 L491.5 830 L493 831.5 L494.375 837 L495 845.75 L493.5 846 L492.5 847 L487 841.5 L480.5 830 L480 828.5 L478.5 827 L478 827.5 L482 883.5 L481 884.5 L482 885.5 L478.375 923 L473.5 941 L473 1010.5 L474.5 1012 L475.5 1012 L480 1016.5 L480 1018.5 L478 1020.5 L476.75 1024 L474.375 1035 L469.625 1047 L469 1050.5 M473 825 L473 823.5 L472 823 L472 824 L473 825 M472 826 L472 825 L471 825 L471 826 L472 826 M474 1020 L474 1016.5 L473 1016 L473 1019.5 L474 1020 M473 1022 L473 1020.5 L472 1020 L472 1021 L473 1022 M472 1028 L472 1026.5 L471 1026 L471 1027 L472 1028 M471 1032 L471 1029.5 L470 1029 L470 1031.5 L471 1032 M470 1035 L470 1034 L469 1034 L469 1035 L470 1035 "/></g><g><path fill="#000000" fill-rule="evenodd" d="M837.5 754 L836 754 L836.5 753 L838 753 L837.5 754 "/></g><g><path fill="#000000" fill-rule="evenodd" d="M835.5 753 L834.5 753 L833 751.5 L833.5 751 L834.5 751 L836 752.5 L835.5 753 "/></g><g><path fill="#000000" fill-rule="evenodd" d="M832.5 751 L831 751 L831.5 750 L833 750 L832.5 751 "/></g><g><path fill="#000000" fill-rule="evenodd" d="M831 750 L830 750 L830 749 L831 749 L831 750 "/></g><g><path fill="#000000" fill-rule="evenodd" d="M829.5 749 L828.5 749 L827 747.5 L827.5 747 L828.5 747 L830 748.5 L829.5 749 "/></g><g><path fill="#000000" fill-rule="evenodd" d="M827 747 L826 747 L826 746 L827 746 L827 747 "/></g><g><path fill="#000000" fill-rule="evenodd" d="M826 746 L825 746 L825 745 L826 745 L826 746 "/></g><g><path fill="#000000" fill-rule="evenodd" d="M792 786.75 L780.25 787.875 L780 785.5 L781.5 784 L800 781.625 L823 781.875 L828.5 781 L829 781 L828.5 780 L827 779.5 L816 775.375 L811.25 772.75 L810.625 771 L810 767.5 L811.5 766 L813 765.5 L822 761.5 L832 758.5 L835.5 758 L837.5 756 L838.5 757 L839.5 757 L840 756.5 L838 754.5 L838.5 754 L839.5 754 L841 755.5 L841.25 756.75 L842.75 757.25 L843 758.5 L844 759.5 L841.5 762 L834 762.75 L824 765.625 L815.5 769 L815 769.5 L816.5 771 L818 771.375 L827 774.625 L831 776.5 L832.5 777 L834 778.5 L835 781.5 L831.5 785 L792 786.75 "/></g><g><path fill="#000000" fill-rule="evenodd" d="M741 850.125 L725.5 850 L724 848.5 L724 846.5 L725.5 845 L727 845.375 L730 846.625 L731.5 847 L732 846.5 L731 845.5 L732 844.5 L732 843 L733 843.5 L733.25 844.75 L734.5 845 L735 845.5 L734 846.5 L734.5 847 L738 846.375 L739.875 845.75 L740 841.5 L734.5 836 L733.5 836 L732 834.5 L732 832.5 L733.5 831 L737 830.5 L743.75 827.75 L744 826.5 L745 825.5 L741 821.5 L741 820.5 L739.5 819 L736 818.5 L712.5 814 L711 812.5 L711.25 811.25 L713 810.5 L715 810.25 L734 813.5 L738 814.5 L741.5 815 L742 814.5 L741 813.5 L740 810.5 L737.5 808 L736 807.5 L731.5 805 L727 800.5 L727 799.5 L726 798.5 L727 797.5 L727.25 796.25 L728.75 796.25 L729 797.5 L730.5 799 L732 799.5 L737 802.375 L740 803.5 L743 803.5 L746 802.375 L747.5 802 L750 799.5 L749.5 795 L748 789.5 L747 788.5 L748 787.5 L747.5 787 L746.5 787 L746 786.5 L747 785.5 L745.5 784 L736.5 784 L735.5 783 L731.5 787 L729.5 787 L728 785.5 L728.25 783.25 L729.5 783 L730 783 L729.5 782 L720.25 779.75 L720.25 776.25 L724 776.5 L732 778.625 L734 778.5 L735.5 778 L736 777.5 L735 776.5 L737 774.5 L736 773.5 L736.25 771.25 L737.75 771.25 L738.375 773 L738.25 780 L749.5 779 L751 777.5 L750 776.5 L749.75 775.25 L748.5 775 L747 773.5 L747.5 773 L751 773.625 L752.5 774 L754 775.5 L755 779.5 L752.5 782 L749.25 783.25 L749.625 786 L752.375 792 L753.375 795 L753.25 801 L753 802.5 L749.5 806 L745.5 807 L744 808.5 L745.25 812 L746 817.5 L744.5 819 L742.5 819 L742 819.5 L747 824.5 L747.25 825.75 L748.75 826.25 L749 828.5 L745.5 832 L741.5 833 L740 834.5 L741 835.5 L744.25 841 L744.25 847 L744 848.5 L742.5 850 L741 850.125 "/></g><g><path fill="#000000" fill-rule="evenodd" d="M712.5 771 L709.25 770.75 L709.625 768 L710.25 766.25 L714.75 763.75 L715 762.5 L716.5 761 L717.5 761 L719 759.5 L720.25 755.25 L721.5 755 L722 755.5 L721 756.5 L720.375 760 L719 762.5 L717 765.5 L716 767.5 L712.5 771 "/></g><g><path fill="#000000" fill-rule="evenodd" d="M216.5 807 L214.5 807 L212 804.5 L200.75 790.25 L199.5 790 L198 788.5 L192 780.5 L183.625 768 L183 765.5 L184.5 764 L190.5 765 L192 766.5 L191.375 770 L192 772.5 L196.5 779 L205 789.5 L209.5 794 L210 793.5 L209.5 791 L207.375 785 L202.5 772 L200.75 766 L200.625 758 L202 752.5 L203.5 751 L207.5 751 L209.5 753 L210.75 753.25 L214.5 759 L217.375 765 L218 767.5 L220 769.5 L220 771 L221 770.5 L221 737.5 L222.5 736 L227.5 737 L229.5 739 L230.5 739 L238 746.5 L242 752.5 L247.5 758 L248 757.5 L247.375 754 L246.5 752 L246.5 750 L247 748.5 L250 745.5 L247 742.5 L245 738.5 L246.5 737 L248.5 737 L251 739.5 L254 744.5 L263 753.5 L263 755.5 L261.5 757 L256 752.5 L250.125 748.25 L251.75 764.75 L250.5 765 L249.5 766 L248.5 765 L247.5 765 L244 761.5 L243.75 760.25 L242.25 759.75 L240 756.5 L235.5 751 L233 747.5 L229.5 744 L227.5 743 L225.25 742.25 L224.5 746 L224.25 749 L226 772.5 L225 773.5 L226 774.5 L226 775.5 L224.5 777 L220.5 777 L216 772.5 L216 771.5 L214 769.5 L213.375 767 L210.5 761 L210 759.5 L206.5 756 L205.25 756.25 L205 758.5 L206 759.5 L205 760.5 L205.5 765 L209 778.5 L211 780.5 L211.5 783 L215 795.5 L217 797.5 L218 805.5 L216.5 807 M191 770 L191 769 L190 769 L190 770 L191 770 "/></g><g><path fill="#000000" fill-rule="evenodd" d="M749 762.25 L738.5 762 L737 760.5 L737.25 758.125 L747 758.25 L748.5 758 L752 754.5 L752.5 753 L752.5 751 L752 749.5 L750.5 748 L749 747.625 L745 747.5 L742 748.5 L739 748.5 L732.5 746 L730 743.5 L727.625 739 L726.375 736 L727 733.5 L728.25 731.25 L732.5 730 L733 730.5 L732 731.5 L732 732.5 L730 734.5 L731 735.5 L731.5 737 L732.5 739 L733 740.5 L734.5 742 L735.5 742 L737.5 744 L743.5 744 L748 739.5 L748 737.5 L749 736.5 L747 734.5 L746.75 733.25 L742 730.5 L740 729.75 L724.5 727 L722 724.5 L722 720.5 L726.5 716 L728.5 715 L731.5 713 L734 711.625 L737 710.5 L741 709.5 L744.5 709 L745 709 L744.5 708 L738.5 704 L734 699.5 L734 698.5 L732 696.5 L732 691.5 L733.5 690 L751 690.25 L754 689.375 L758.5 687 L759 687 L758.5 686 L757 686 L757.5 685 L760 685 L759.5 684 L755 684 L755.5 683 L760.5 683 L762 684.5 L761.25 689 L760.75 690.75 L756 693.5 L754 694.125 L737.5 695 L737 695.5 L738 696.5 L738.25 697.75 L745.5 703 L752 709.5 L752 711.5 L750.5 713 L736.5 714 L734.5 716 L733 716.5 L727.25 720.25 L727 721.5 L726 722.5 L726.5 723 L741 725.75 L743 726.5 L745 727.5 L746.5 728 L752 733.5 L752.375 735 L752.5 739 L752 741.5 L748 745.5 L748.5 746 L751.5 746 L757 751.5 L756.375 755 L756 756.5 L750.5 762 L749 762.25 "/></g><g><path fill="#000000" fill-rule="evenodd" d="M534 674 L533 673.5 L533 669 L534 669.5 L534 674 "/></g><g><path fill="#000000" fill-rule="evenodd" d="M417 704 L416 704 L416 703 L417 703 L417 704 "/></g><g><path fill="#000000" fill-rule="evenodd" d="M420 701 L419.5 701 L417.5 703 L417 702.5 L417 701.5 L420 699 L420 701 "/></g><g><path fill="#000000" fill-rule="evenodd" d="M449 726.5 L445 726.5 L442 725.375 L437.25 722.75 L434.625 718 L433.625 714 L433.625 704 L434.5 700 L434.375 697 L433.5 695 L433 693.5 L434.5 692 L436 691.75 L443 691.75 L447 693.375 L450.5 694 L451 694 L450.5 695 L449 695 L449.5 696 L450.5 696 L457 702.5 L459.5 707 L460.25 709 L460.375 716 L459 720.5 L454.5 725 L452 725.5 L449 726.5 M451 721.25 L452.5 721 L455 718.5 L456.25 715 L456.25 710 L456 708.5 L444.5 697 L442.5 697 L441.5 698 L440.5 697 L439 698.5 L439 717.5 L442.5 721 L451 721.25 "/></g><g><path fill="#000000" fill-rule="evenodd" d="M477.5 713 L474.5 713 L473 711.5 L471.5 709 L464 698.5 L463 696.5 L460.5 694 L457.25 693.75 L456 687.5 L457.5 686 L459.5 686 L464 690.5 L464 691.5 L466.5 694 L467 693.5 L468 683.5 L473.5 678 L480.5 679 L482 680.5 L481.75 681.875 L475.5 682 L472 685.5 L471.75 687 L471.5 694 L472.625 699 L473.625 702 L475.5 706 L478 710.5 L479 711.5 L477.5 713 "/></g><g><path fill="#000000" fill-rule="evenodd" d="M406 670 L405 669 L405 668 L406 668.5 L406 670 "/></g><g><path fill="#000000" fill-rule="evenodd" d="M420 699 L420 697.5 L422 695.5 L422 693.5 L423.5 692 L424.5 692 L427 694.5 L426 695.5 L425.375 700 L421.625 712 L421.75 717 L422.5 719 L426 724.5 L427 726.5 L434.5 734 L438.5 732 L440 730.5 L440.25 729.25 L441.75 729.25 L441.5 731 L441 732.5 L436.5 737 L431.5 737 L429.5 735 L428.5 735 L425 731.5 L424 729.5 L422 726.5 L421 724.5 L418.5 722 L417 723.5 L416.5 725 L415.5 727 L415 728.5 L409.5 734 L405.5 734 L400 728.5 L391.5 715 L385.5 699 L384.625 696 L384 689.5 L385.5 688 L388.75 689.25 L388.375 692 L388.375 694 L394.625 711 L395.5 713 L403 724.5 L404.25 726.75 L405.5 727 L407 728.5 L407 729.5 L407.5 730 L411 726.5 L411.5 725 L415.375 717 L420 701 L421 699.5 L420 699 "/></g><g><path fill="#000000" fill-rule="evenodd" d="M261.75 738.75 L258.5 739 L256.5 737 L250 732.5 L239 727.5 L233.25 725.75 L233.25 722.125 L238 722.625 L241 723.5 L246 725.5 L248 726.5 L257.75 734.25 L258 735.5 L259.5 737 L261.75 737.25 L261.75 738.75 "/></g><g><path fill="#000000" fill-rule="evenodd" d="M621 605 L620 605 L620 604 L621 604 L621 605 "/></g><g><path fill="#000000" fill-rule="evenodd" d="M577 654 L576 653.5 L576 650 L577 650.5 L577 654 "/></g><g><path fill="#000000" fill-rule="evenodd" d="M575.5 664 L571.5 664 L569.5 662 L568.5 662 L567 660.5 L567 659.5 L565.5 658 L562 659.25 L557 659.375 L554.5 659 L550 654.5 L548.75 651 L548.75 642 L550 637.5 L551.5 636 L555.5 635 L559 638.5 L559.25 640 L559.25 645 L559 646.5 L559 647 L558 646.5 L557 642.5 L554.5 640 L554 640.5 L553.75 642 L553.75 651 L554 652.5 L556.5 655 L558.5 655 L559.5 656 L563 652.5 L562 643.5 L563.5 642 L565.5 642 L567 643.5 L569 655.5 L572.5 659 L573.5 659 L575 657.5 L575 656.5 L578 653.5 L578 643 L579 643.5 L578.375 656 L577 662.5 L575.5 664 "/></g><g><path fill="#000000" fill-rule="evenodd" d="M533.5 690 L531 690.5 L528 690.5 L521.5 689 L519.5 687 L518.5 687 L512.5 681 L503.25 681.75 L502 678.5 L502 678 L501 678.5 L501.5 692 L503 704.5 L501.5 706 L498.25 705.75 L497.5 704 L489.625 690 L485.625 680 L485 674.5 L486.5 673 L487.5 674 L488.5 674 L490 675.5 L489 676.5 L489.625 679 L492.5 686 L496 692.5 L496 693 L497 692.5 L497 675.5 L498.5 674 L503.5 674 L506.5 677 L509.5 676 L510 675.5 L508 673.5 L507.75 672 L507.75 663 L508.625 660 L509.5 658 L510 656.5 L513.5 653 L518 650.625 L521 650.625 L522.75 651.25 L525.375 656 L526.5 659 L527.375 662 L527.375 667 L527 669.5 L525 671.5 L525 672.5 L520.5 677 L519.5 677 L517 679.5 L519.5 682 L524 684.5 L526 685.25 L531.75 685.875 L533.125 675.25 L535 674.75 L535 666 L536 666.5 L536.375 686 L536 687.5 L533.5 690 M516.5 674 L518.5 673 L520 671.5 L520 670.5 L523 667.5 L522.375 661 L521 656.5 L519.5 655 L515.5 657 L514 658.5 L513.625 660 L512.375 663 L512 664.5 L511 665.5 L512 666.5 L512 671.5 L514 673.5 L514.25 674.75 L516.5 674 "/></g><g><path fill="#000000" fill-rule="evenodd" d="M494 623.5 L491.5 625 L491 624.5 L494.5 621 L495.5 621 L496.5 620 L497 620.5 L496.75 621.75 L494 623.5 "/></g><g><path fill="#000000" fill-rule="evenodd" d="M547.5 669 L546.5 669 L545 667.5 L544.5 666 L535.625 650 L529.625 635 L527.5 628 L524.75 621 L524.125 616.25 L525.5 616 L526.5 615 L528 616.5 L528.625 619 L539.375 647 L540 649.5 L542 651.5 L542.5 653 L548.375 664 L549 667.5 L547.5 669 "/></g><g><path fill="#000000" fill-rule="evenodd" d="M447.5 645 L439 644.25 L436 643.375 L434 642.5 L432.5 642 L428 637.5 L427.5 636 L426.625 634 L425.5 630 L425.5 626 L426.25 623.25 L429.5 622 L431 620.5 L430.625 619 L430.25 615 L440 614.25 L445 615.75 L449.5 615 L450 615 L449.5 616 L437.5 618 L436 619.5 L437 620.5 L447.5 638 L448.375 640 L449 643.5 L447.5 645 M432 622 L432 621 L431 621 L431 622 L432 622 M443.75 640.75 L443.5 639 L439 632.5 L433 622.5 L432 622 L432 622.5 L431.75 623.75 L430.25 624.25 L430 626.5 L429 627.5 L430 628.5 L430 632.5 L432 634.5 L432 635.5 L434.5 638 L441 640.5 L443.75 640.75 "/></g><g><path fill="#000000" fill-rule="evenodd" d="M424 678.25 L415 678.25 L412 677.375 L408.25 675.75 L407.5 674 L406.5 672 L406.375 670 L407 667.5 L407 667 L408 667.5 L409 670.5 L410.5 672 L412 672.5 L417 674.5 L421 674.5 L424.5 674 L427 671.5 L428.375 667 L428.375 661 L427.375 658 L425.5 654 L425 652.5 L425 652 L424 652.5 L424 654.5 L418.5 660 L417 660.5 L415 661.375 L411 662.5 L405 662.375 L399.5 661 L394 655.5 L393.5 647 L395 640.5 L397 638.5 L399 634.5 L404.5 629 L410 627.5 L414 627.625 L415.5 628 L417 629.5 L416 630.5 L416.5 632 L418.5 636 L420.5 639 L426.5 647 L431.5 656 L432.125 658 L432.125 670 L431 673.5 L426.5 678 L424 678.25 M413 657.25 L416.5 656 L419 653.5 L419.25 652 L419.25 647 L418.5 645 L414.5 638 L414 636.5 L412 634.5 L412 631.5 L411.5 631 L410.5 632 L406.5 633 L404 635.5 L401 640.5 L399 642.5 L398 653.5 L401.5 657 L413 657.25 "/></g><g><path fill="#000000" fill-rule="evenodd" d="M283.75 743.75 L281.5 744 L278.5 741 L274.5 739 L272.5 737 L270.5 739 L266.125 738.875 L265.875 731.25 L264.5 731 L263.5 730 L263 730.5 L263.375 732 L263.75 735.75 L262.25 735.75 L261.75 733.25 L260.25 732.75 L258.375 728 L258 726.5 L259.5 725 L265.5 726 L266.5 727 L267 726.5 L268 719.5 L270 717.5 L270 716.5 L276.5 710 L285.5 709 L286.5 710 L287 709.5 L287.625 706 L289.5 702 L290 700.5 L296.5 694 L302.75 692.875 L303 689.5 L301 687.5 L300.375 685 L295.5 673 L294.625 669 L294.125 662.25 L298.5 661 L300 662.5 L303.5 677 L306.625 687 L308 689.5 L310 692.5 L311 694.5 L315.5 699 L318.5 700 L320.5 702 L322.5 702 L323 701.5 L322 700.5 L321.375 697 L316.625 685 L316 680.5 L315 679.5 L316 678.5 L316.25 677.25 L318.5 677 L320 678.5 L320 683 L321 682.5 L324 677.5 L325.5 676 L331.75 671.75 L331.75 662 L333 656.5 L335 654.5 L335 653.5 L341.5 647 L342.5 647 L344.5 645 L348.75 646.25 L350.625 653 L350.625 656 L350 660.5 L348 662.5 L348 663.5 L341.5 670 L340.5 670 L338 672.5 L338.5 674 L339.5 676 L340 677.5 L341.5 679 L342.5 679 L345.5 682 L351.5 682 L353.5 680 L354.5 680 L361 673.5 L361.5 672 L364.5 665 L365 662.5 L365 662 L366 662.5 L366 664 L367 663.5 L368 658.5 L369.5 657 L370 657.5 L369.375 660 L368.625 662 L367.5 666 L365.5 671 L364.5 673 L360.5 679 L360 680.5 L355.5 685 L351 686.375 L346 686.375 L341.5 685 L336 679.5 L334.75 676.25 L332.5 676 L326 682.5 L326.625 687 L329.5 698 L330 701.5 L328.5 703 L326.5 703 L325.5 702 L325 702.5 L324.75 705.875 L318.5 706 L316.5 704 L315 703.5 L310.5 701 L310 701.5 L311 702.5 L311 709.5 L312 710.5 L311 711.5 L310.25 718 L307.75 722.75 L303 725.375 L300 726.5 L297.25 727.25 L296.75 728.75 L293.25 728.75 L288.625 722 L287.5 719 L287 716.5 L284.5 714 L280.5 713 L278.5 715 L277.5 715 L274 718.5 L273.5 720 L272.5 722 L271.75 724 L271 729.5 L272.5 731 L281 737.5 L282.875 737.75 L284 731.5 L285.5 730 L286 730.5 L284.25 742 L283.75 743.75 M340.5 664 L341.5 664 L344 661.5 L344 660.5 L346 658.5 L346 650.5 L345.5 650 L344.5 651 L343.5 651 L339 655.5 L339 656.5 L337 658.5 L336.5 661 L335.5 664 L335 666.5 L336.5 668 L340.5 664 M300.5 722 L302.5 720 L303.5 720 L306 717.5 L306 716.5 L307 715.5 L306 714.5 L307 713.5 L306.375 705 L304.75 697.125 L298.5 698 L294 702.5 L293.5 704 L292.5 706 L291.75 708 L291.75 714 L292.5 716 L294.5 720 L295.25 721.875 L300.5 722 M366 668 L366 665.5 L365 665 L365 667.5 L366 668 M365 670 L365 669 L364 669 L364 670 L365 670 M364 672 L364 671 L363 671 L363 672 L364 672 M272 737 L272 736 L271 736 L271 737 L272 737 "/></g><g><path fill="#000000" fill-rule="evenodd" d="M727 563 L727 561.5 L726 561 L726 562 L727 563 M697 849 L697 724.5 L695.5 723 L693 723.375 L686.25 725.25 L685.75 726.875 L680.5 727 L679 725.5 L679 724.5 L680.5 723 L682.5 723 L684 721.5 L684 720.5 L685.5 719 L697 719 L697 541.25 L695.5 541 L689 547.5 L686.5 551 L672.75 568.75 L670.5 569 L669 567.5 L669 564.5 L671 562.5 L671.625 560 L672.5 558 L674 555.5 L685 542.5 L689.5 538 L698 535.5 L700.75 535.25 L702.625 543 L703.625 546 L709 557.5 L713.25 563.75 L718 566.375 L721.5 567 L725 563.5 L726 559.5 L726.5 559 L727.5 560 L728 559.5 L728 555 L729 555.5 L728.5 561 L727.375 565 L726.5 567 L726 568.5 L723.5 571 L721 571.625 L719 571.625 L715.5 571 L712.5 568 L711.5 568 L708 564.5 L707 562.5 L703.5 557 L703 555.5 L703 555 L702 555.5 L702 718.5 L703 719.5 L702 720.5 L702 843 L700.25 843.25 L699.5 845 L698.5 847 L697 849 "/></g><g><path fill="#000000" fill-rule="evenodd" d="M607.5 597 L600 590.5 L599.5 589 L599.25 587.25 L600.5 587 L601.5 586 L602.5 587 L603.75 587.25 L604 588.5 L606 590.5 L606 592.5 L608 594.5 L608 596.5 L607.5 597 "/></g><g><path fill="#000000" fill-rule="evenodd" d="M671.75 624.75 L669.25 624.75 L667.5 618 L663.75 593.25 L661 593.625 L659.5 594 L657 596.5 L654.5 606 L650.75 615.75 L649.5 616 L648.5 617 L647.5 616 L646.25 615.75 L645.5 612 L640.375 597 L638 592.5 L636.5 591 L633.5 590 L631.5 588 L626.125 588.125 L626.625 595 L627.5 598 L629.5 603 L632 607.5 L634 610.5 L635.25 613 L635.25 619 L633.75 622.75 L632 623.25 L626.5 624 L624.5 622 L623.25 621.75 L620.625 617 L618.375 609 L618 606.5 L619.5 605 L620 605.5 L620.625 610 L622.25 615.75 L623.5 616 L624 616.5 L623 617.5 L624.5 619 L625.5 619 L626 619.5 L625 620.5 L625.5 621 L627 621.375 L630.75 621.75 L631.25 620.25 L632.75 619.75 L633.375 618 L633.75 614.25 L632.25 613.75 L631.5 612 L626.5 604 L624.5 599 L622.25 591 L622.5 589 L623 587.5 L625.5 585 L632 585.75 L634 586.5 L638.5 589 L641 591.5 L647.375 604 L648.25 606.75 L649.75 606.75 L651.5 599 L654 592.5 L655.5 591 L659 589.75 L665.5 589 L668 591.5 L672.625 620 L672.375 623 L671.75 624.75 "/></g><g><path fill="#000000" fill-rule="evenodd" d="M597.75 640.75 L593.25 639.75 L588.625 631 L585.5 623 L584.5 621 L583.75 619 L575 618.25 L573.25 617.75 L573 615.5 L574.5 614 L581.75 614.75 L581.375 612 L579.625 608 L578.625 605 L577.625 600 L577 587.5 L578.5 586 L580 587.5 L581 594.5 L582 595.5 L581 596.5 L583.625 606 L585.375 610 L586.25 613.875 L599.75 612.875 L600 611.5 L600.5 611 L601.5 612 L602.5 611 L603.75 611.25 L605.625 617 L609.5 626 L612 630.5 L613.5 632 L615 630.5 L615 626.5 L615.5 626 L617 627.5 L618 637.5 L616.5 639 L613.5 638 L609 633.5 L608 631.5 L606 628.5 L604.625 626 L600.75 615.25 L598 615.5 L589.25 618.25 L589.625 621 L594 632.5 L595.5 634 L596.75 634.25 L597.5 637 L597.75 640.75 "/></g><g><path fill="#000000" fill-rule="evenodd" d="M470 638.5 L463.5 644.375 L459 644.375 L457.5 644 L454 640.5 L453.5 639 L452.5 637 L451.75 635 L451 630.5 L450 629.5 L451 628.5 L451.75 620 L453.25 615.25 L454.5 615 L456.5 613 L467.75 613.875 L467.625 612 L466.5 609 L464.5 601 L463.625 596 L464 581.5 L466.5 579 L468.5 579 L470 580.5 L470.625 590 L475.5 613 L476 618.5 L479.5 622 L480.5 622 L482.5 624 L488.5 624 L489.5 623 L490 623.5 L490 624.5 L491 625.5 L490.5 626 L489 626.25 L477.5 626 L475.5 624 L475 624.5 L474.5 628 L472.625 633 L472 635.5 L470 637.5 L470 638.5 M468 633.5 L468.625 631 L469.375 629 L470.5 625 L471 619.5 L469.5 618 L468.5 619 L458.5 617 L456 619.5 L455.75 632 L457.625 637 L458 638.5 L459.5 640 L462.5 640 L466 636 L468 633.5 "/></g><g><path fill="#c23132" fill-rule="evenodd" d="M707 1019 L704.5 1022 L703.5 1022 L702 1024 L700 1024.5 L697 1026 L695.5 1026 L693.5 1028 L685 1029.75 L679 1029.5 L675.5 1030 L674.5 1029 L673.5 1030 L665 1030.5 L659 1031.5 L655 1032.5 L648 1035.38 L644 1036.5 L613 1049.38 L609 1050.63 L607 1051.5 L605.5 1052 L603.5 1054 L601.5 1054 L599.5 1056 L596 1057.13 L557 1060.63 L539 1065.25 L501 1071.5 L486 1077.5 L481 1079.5 L465 1081.88 L463 1081.75 L458 1080.5 L452 1079.5 L448 1078.5 L443 1076.63 L440.5 1076 L438.5 1074 L437 1073.5 L430 1069.5 L424 1065.63 L421 1064.63 L416 1063.5 L346 1056.63 L300 1056.25 L294 1055.5 L266 1047.38 L256 1043.38 L238.5 1033 L221.5 1018 L218 1014.5 L216.5 1012 L210.5 1004 L188 978.5 L186.5 977 L183.5 976 L181.5 974 L179 973.5 L176 972.5 L173 971.875 L131.5 969 L129.5 967 L126 966.5 L108 961.5 L104 960.75 L84 959.375 L68 962.5 L52 968.5 L35 973.625 L24 978.5 L14 982.5 L-10 989.5 L-33 995.625 L-35 996.375 L-39 997.5 L-50 999.5 L-58 1001.5 L-69 1003.38 L-86 1003.25 L-91 1002.5 L-95 1001.38 L-109 995.5 L-116 992.5 L-118.5 991 L-125.5 986 L-132 982.5 L-142 978.5 L-146 977.5 L-184 961.5 L-185.5 961 L-187.5 959 L-190 958.375 L-195 956.5 L-202 954.5 L-214 952.625 L-233 952.625 L-257.5 956 L-259.5 958 L-261 958.5 L-283 968.5 L-288 970.5 L-292 971.625 L-304 976.5 L-315 979.625 L-322 982.5 L-329 984.625 L-339 990.5 L-358 999.375 L-360.5 1000 L-362.5 1002 L-364 1002.5 L-374 1007.38 L-378 1008.38 L-397 1007.5 L-406 1005.63 L-413 1004.75 L-436.5 1004 L-437.5 1005 L-438.5 1004 L-460 1004.75 L-464 1005.63 L-473 1010.38 L-476 1011.5 L-483 1013.5 L-488 1014.25 L-502 1014.25 L-506 1013.5 L-511 1011.5 L-512.5 1011 L-514.5 1009 L-527.5 1008 L-528.5 1007 L-529.5 1008 L-537 1008.63 L-551 1011.5 L-586 1015.5 L-602 1019.5 L-618 1025.5 L-632 1033.5 L-635 1035.5 L-644.5 1043 L-650.5 1047 L-653 1048.38 L-656 1049 L-656.5 1049 L-658 1047.5 L-657.75 1045.25 L-656 1044 L-654.5 1044 L-650.5 1040 L-640.5 1032 L-637.5 1030 L-635.5 1028 L-633.5 1028 L-630.5 1025 L-626 1022.5 L-624.5 1022 L-622.5 1020 L-620 1019.38 L-616 1017.63 L-585 1008.75 L-549 1004.5 L-541 1002.5 L-535 1001.63 L-522 1001.5 L-513 1002.75 L-511 1003.5 L-506 1006.25 L-498 1008.25 L-490 1008.38 L-481 1006.25 L-476 1004.38 L-467 999.625 L-463 998.5 L-457 997.625 L-415 997.5 L-392 1001.38 L-374.5 1001 L-372.5 999 L-370.5 999 L-368.5 997 L-367 996.5 L-340 983.5 L-333 979.5 L-328 977.5 L-324 976.375 L-314 972.5 L-301.5 969 L-299.5 967 L-297 966.5 L-285 962.375 L-260 950.625 L-252 948.625 L-228 945.5 L-210 946.5 L-196 949.5 L-187 952.625 L-183 954.5 L-181.5 955 L-179.5 957 L-177.5 957 L-175.5 959 L-173 959.625 L-158 965.5 L-149 969.5 L-129 976.625 L-125 978.5 L-119.5 982 L-117.25 983.25 L-116.75 984.75 L-115 985.5 L-95 994.5 L-88 996.5 L-83 997.375 L-73 997.5 L-60 995.5 L-41 991.25 L-13 983.5 L14 975.5 L22 972.375 L23.5 972 L25.5 970 L28 969.375 L72 954.75 L103 953.75 L115 956.5 L132.5 961 L134.5 963 L172 964.875 L176 965.5 L185 968.625 L190.5 972 L202 983.5 L202.25 984.75 L203.5 985 L207 988.5 L220.5 1006 L222 1008.5 L235.5 1022 L243.5 1028 L259 1037.38 L293 1048.5 L298 1049.13 L401 1054.5 L421 1057.5 L425 1058.63 L427 1059.5 L433 1063.5 L446 1070.38 L449 1071.5 L462 1074.5 L467 1074.63 L477 1073.25 L480 1072.5 L494 1066.63 L509 1062.63 L539 1058.25 L558 1053.63 L594 1050.25 L598 1048.63 L600.5 1048 L602.5 1046 L604 1045.5 L640 1030.5 L644 1029.5 L652 1026.5 L666 1023.75 L697 1021 L699.5 1020 L701.5 1018 L702 1018 L705.5 1015 L706.5 1015 L707.5 1014 L709 1015.5 L708 1018 L707.5 1017 L707 1017.5 L707 1018 L706 1018.5 L706.5 1019 L707 1019 "/></g><g><path fill="#304ae0" fill-rule="evenodd" d="M702 849 L702 848 L701 848 L701 849 L702 849 M700 852 L700 851 L699 851 L699 852 L700 852 M697 860 L691.5 865 L689 864.375 L687 863.5 L680 859.5 L670 855.5 L668.5 855 L666.5 853 L664 852.375 L662 851.5 L656.5 848 L636 838.5 L631 836.5 L624 834.5 L595 822.5 L588 819.5 L581 815.5 L579 814.625 L568 810.625 L491 788.5 L487 787.875 L454 787.75 L442 789.5 L422 796.375 L394 802.5 L386 805.5 L368 810.5 L356 812.5 L349 814.5 L329 819.375 L262 826.375 L167 828.5 L147 823.375 L127 815.5 L117 812.5 L108 808.5 L102 804.625 L99 803.5 L82 798.625 L71 796.625 L50 797.75 L46 798.5 L21 806.625 L19 807.375 L15 808.5 L10 810.5 L7.5 812 L-2.5 820 L-5.5 822 L-17.5 831 L-26.5 837 L-31 839.5 L-32.5 840 L-34.5 842 L-37 842.625 L-79 858.5 L-91 861.5 L-103 863.5 L-139 864.375 L-180 858.5 L-183 857.375 L-190 853.5 L-191.5 853 L-206 838.5 L-206 837.5 L-207.5 836 L-209.5 835 L-212.5 833 L-214.5 832 L-216.5 830 L-218.5 830 L-220.5 828 L-230 825.5 L-239 823.875 L-260 823.5 L-305 829.5 L-333 840.5 L-352.5 853 L-356.5 856 L-366 862.5 L-368 863.5 L-373.5 867 L-376 868.375 L-387 872.5 L-391 873.625 L-395 875.375 L-399 876.5 L-424 880.5 L-430 880.5 L-444 878.5 L-457 875.25 L-463 872.625 L-472 869.375 L-474.5 868 L-483 861.5 L-485 860.875 L-515 861.625 L-538 866.5 L-551 871.5 L-557 875.5 L-563 878.375 L-565.5 879 L-567.5 881 L-570 881.625 L-574 883.5 L-579 885.625 L-590 891.5 L-606.5 904 L-611.5 907 L-636 924.5 L-638.5 926 L-641 928.5 L-642 931.5 L-643.5 933 L-644.5 933 L-650 938.5 L-650.25 940.75 L-652 941.5 L-654 941.5 L-656 941 L-656 935 L-648 927.5 L-645.75 923.25 L-634.5 915 L-632 913.5 L-608.5 897 L-606.5 896 L-605 894.5 L-604.75 893.25 L-603 892.5 L-595 886.5 L-580 878.625 L-575 876.5 L-569 873.625 L-566.5 873 L-564.5 871 L-562 870.375 L-559.5 869 L-554 865.5 L-538 859.5 L-514 854.75 L-482 854.875 L-480 855.5 L-475.5 858 L-470.5 863 L-468 863.5 L-462 865.625 L-453 869.375 L-431 873.5 L-423 873.5 L-399 869.375 L-379 862.375 L-373 858.5 L-371 857.5 L-362 851.5 L-358 848.5 L-338 835.5 L-309 823.5 L-297 820.5 L-241 816.75 L-231 818.5 L-220 821.5 L-215 823.5 L-210.5 826 L-207 828.5 L-204.5 830 L-194 840.5 L-194 841.5 L-190.5 845 L-182.5 850 L-180 851.375 L-155 856.375 L-101 856.5 L-90 854.5 L-82 852.375 L-58 843.5 L-55.5 843 L-53.5 841 L-51 840.5 L-38 835.5 L-29.5 831 L-23.5 827 L4.5 806 L11 802.625 L25 798.375 L27 797.625 L46 791.625 L53 790.75 L75 790.75 L82 791.625 L100 796.5 L105 798.5 L113 803.5 L123 807.5 L134 810.625 L141 813.5 L145 815.375 L165 821.25 L190 824.5 L278 817.5 L289 815.75 L330 812.375 L334 811.5 L357 805.5 L368 803.5 L383 799.375 L390 796.625 L418 790.5 L438 783.5 L457 780.75 L487 780.875 L491 781.5 L568 803.5 L582 808.625 L586 810.5 L591 813.5 L598 816.5 L639 832.5 L659 841.5 L665 845.5 L667 846.375 L669.5 847 L671.5 849 L673 849.5 L675 850.375 L679 851.625 L685 854.5 L686.5 855 L688.5 857 L690.5 857 L691.5 858 L694 855.5 L694.5 854 L697 849 L698.5 847 L699.5 845 L700.25 843.25 L702 843 L703.5 843 L704 843.5 L703 845 L702.25 846.75 L703 847 L703 849.5 L702 850.5 L702 851 L700 852.5 L699.5 854 L697.5 858 L697 860 "/></g><g><path fill="#000000" fill-rule="evenodd" d="M-673 724 L-673 723 L-674 723 L-674 724 L-673 724 M697 1026 L700 1024.5 L702 1024 L702 1242 L778.75 1242 L779 1240.5 L769.5 1231 L768 1230.5 L763 1227.5 L756 1224.5 L750 1221.5 L748.25 1220.75 L748.25 1217.25 L749.5 1217 L750.5 1216 L751.5 1217 L755 1217.5 L767 1221.63 L775 1225.5 L777.5 1227 L781 1229.5 L783.5 1231 L785 1232.5 L785.375 1234 L785.75 1237 L784.875 1244.75 L781.25 1246.25 L781 1247.5 L772 1256.5 L772.5 1257 L774 1256.5 L782 1252.5 L784 1251.75 L790 1250.25 L794 1248.63 L796.5 1248 L797 1248 L796.5 1249 L795 1249.5 L771 1260.5 L764 1262.63 L755.5 1266 L754 1264.5 L754 1262.5 L758.5 1258 L761 1257.38 L763 1256.5 L765.5 1255 L769 1252.5 L771.5 1251 L776 1246.5 L775.5 1246 L702 1246 L701 1272.5 L699.5 1274 L698.5 1274 L698 1273.5 L699 1272.5 L699 1269.5 L697 1267.5 L697 1246 L600.125 1246 L600.5 1252 L602.5 1260 L605.25 1266.75 L608.75 1267.25 L608.75 1268.88 L604.5 1269 L599 1263.5 L598.625 1262 L597.5 1259 L594.75 1246 L494.25 1246 L494.625 1250 L495.375 1252 L496 1254.5 L497 1255.5 L496 1256.5 L496 1257.5 L495.5 1258 L492 1254.5 L492 1253.5 L490 1251.5 L489.875 1246 L392.25 1246 L391.5 1248 L391.25 1250 L392.75 1256 L394 1259.5 L396.5 1262 L397.5 1262 L399 1263.5 L398.5 1264 L395 1263.38 L393 1262.5 L391.5 1262 L390 1260.5 L388.75 1257 L387.25 1250 L387.75 1246 L283.25 1246 L283.625 1250 L285.375 1254 L286.25 1256.75 L289.5 1258 L291 1259.5 L290.5 1260 L287 1259.38 L285.5 1259 L281 1254.5 L280.625 1253 L279.5 1250 L278.75 1246 L183.125 1246 L184 1253.5 L187 1256.5 L187 1258.5 L188.5 1260 L189.5 1260 L191 1261.5 L190.5 1262 L187.5 1262 L182 1256.5 L178.75 1246 L78.25 1246 L77.75 1247.75 L76.25 1248.25 L73 1260.5 L73 1261 L74 1260.5 L74 1259.5 L74.5 1259 L75.5 1260 L76.5 1259 L77.75 1259.25 L77.75 1260.75 L73 1263.38 L70.5 1264 L69 1262.5 L69.5 1257 L70.75 1252 L71.5 1250 L72.5 1248 L72.75 1246 L-27.75 1246 L-31.625 1262 L-31.25 1266.75 L-33.5 1267 L-35 1265.5 L-35.625 1263 L-35.625 1261 L-34 1254.5 L-35 1253.5 L-34 1252.5 L-33.625 1251 L-32.375 1248 L-32.25 1246 L-131.875 1246 L-131 1263.75 L-132.75 1263.75 L-134.375 1259 L-135.5 1253 L-136.125 1246 L-239.875 1246 L-239.375 1251 L-237 1259.5 L-235 1261.5 L-235.5 1262 L-237.5 1262 L-241 1258.5 L-241.5 1257 L-242.375 1255 L-243.375 1252 L-244.125 1246 L-338.875 1246 L-338.375 1253 L-337.375 1256 L-337.25 1257.75 L-338.5 1258 L-341 1255.5 L-343.25 1246 L-442.75 1246 L-443.5 1250 L-444 1254.5 L-445 1255.5 L-444 1256.5 L-445 1257.5 L-445 1258.5 L-445.5 1259 L-448 1256.5 L-447 1247.5 L-446 1246.5 L-446.5 1246 L-546.75 1246 L-549.375 1259 L-550 1267.5 L-548 1269.5 L-548.25 1270.75 L-550.5 1271 L-554 1267.5 L-554.75 1263 L-554.625 1261 L-551.5 1249 L-551.25 1246 L-656 1246 L-657 1275.5 L-658.5 1277 L-659.5 1277 L-660 1276.5 L-659 1275.5 L-659 1274.5 L-661 1272.5 L-661 1246 L-706.5 1246 L-709 1243.5 L-708.5 1243 L-661 1242 L-661 988.125 L-677.75 989.875 L-677.75 987.25 L-672.5 986 L-670.5 984 L-668 983.5 L-661 983.75 L-661 729.25 L-665 727.75 L-678.5 726 L-681 723.5 L-681 722.5 L-679.5 721 L-677 720.375 L-675 720.5 L-673 721.375 L-670.5 722 L-668.5 724 L-663.5 724 L-661.5 726 L-661 725.5 L-661 577.25 L-663.5 578 L-666 579.5 L-671 583.5 L-679 590.5 L-683.5 594 L-686 596.5 L-686.25 597.75 L-691.5 601 L-693 599.5 L-692.75 596.25 L-691.5 596 L-679 583.5 L-679 582.5 L-669.5 573 L-665 570.625 L-655 570.625 L-653.5 571 L-650 574.5 L-649.5 576 L-639 596.5 L-637 598.5 L-636.375 601 L-634.625 605 L-634.25 608.75 L-637.5 610 L-639 608.5 L-639.625 605 L-640.375 603 L-641 600.5 L-643 598.5 L-655.25 575.25 L-656.75 575.25 L-656 726.75 L-654.25 727.25 L-654.25 728.75 L-656 729.25 L-656 935 L-656 941 L-656 981.875 L-649.5 983 L-647.5 985 L-647 984.5 L-647 983.5 L-645.5 982 L-645 982.5 L-645 984.5 L-647.5 987 L-656 986.125 L-656 1044 L-657.75 1045.25 L-658 1047.5 L-656.5 1049 L-656 1049 L-656 1242 L-550.5 1242 L-550 1241.5 L-551 1240.5 L-550.75 1238.25 L-547.25 1238.25 L-545.75 1242 L-445.25 1242 L-444.5 1238 L-444.25 1234.25 L-445.5 1234 L-446 1233.5 L-443.5 1231 L-442.5 1231 L-441.5 1230 L-440.5 1231 L-439.5 1231 L-439 1231.5 L-440 1232.5 L-441 1240.5 L-442 1241.5 L-441.5 1242 L-343.25 1242 L-342 1229.5 L-340.5 1228 L-339 1228.25 L-339 1242 L-245.125 1242 L-243.875 1230.25 L-242.5 1230 L-241.5 1229 L-240 1230.5 L-241 1231.5 L-241 1242 L-134.5 1241 L-132.5 1239 L-131 1240.5 L-130.75 1242 L-30.5 1242 L-28.5 1240 L-26.5 1242 L387.75 1242 L388 1239.5 L389.5 1238 L390.75 1238.25 L392.25 1242 L488.75 1242 L488.375 1239 L488 1237.5 L490.5 1235 L493 1237.5 L493.125 1242 L595.75 1242 L597 1238.5 L598.5 1237 L601.5 1237 L603 1238.5 L603 1239.5 L601 1241.5 L601.5 1242 L697 1242 L697 1026 M786 1253 L786 1252 L785 1252 L785 1253 L786 1253 M784 1254 L784 1253 L783 1253 L783 1254 L784 1254 M782 1255 L782 1254 L781 1254 L781 1255 L782 1255 M779 1256 L779 1255 L778 1255 L778 1256 L779 1256 M777 1257 L777 1256 L776 1256 L776 1257 L777 1257 M771 1258 L771 1257 L770 1257 L770 1258 L771 1258 M775 1258 L775 1257 L774 1257 L774 1258 L775 1258 M772.5 1259 L773 1258 L771.5 1258 L771 1259 L772.5 1259 M770 1260 L770 1259 L769 1259 L769 1260 L770 1260 "/></g>
</svg>